<svg xmlns="http://www.w3.org/2000/svg" width="453.631" height="173.836" viewBox="0 0 453.631 173.836"><defs><style>.a{fill:#fff;fill-rule:evenodd;}</style></defs><g transform="translate(0)"><g transform="translate(0)"><g transform="translate(0)"><path class="a" d="M80.086,120.418h1.026V33.5H80.086Z" transform="translate(127.703 53.418)"/><g transform="translate(0)"><g transform="translate(0 91.272)"><path class="a" d="M28.49,26.583a16.622,16.622,0,0,1-5.055,4.232,15.034,15.034,0,0,1-7.18,1.545A17.947,17.947,0,0,1,9.65,31.188,15.109,15.109,0,0,1,4.509,27.9a14.512,14.512,0,0,1-3.332-5.09A17.871,17.871,0,0,1,0,16.174,16.658,16.658,0,0,1,1.264,9.6,14.849,14.849,0,0,1,4.739,4.535a15.852,15.852,0,0,1,5.255-3.26A18.24,18.24,0,0,1,16.6.1a16.29,16.29,0,0,1,6.462,1.287,11.81,11.81,0,0,1,4.853,3.689L23.607,8.452a7.741,7.741,0,0,0-3.1-2.6,9.383,9.383,0,0,0-4.021-.886,10.734,10.734,0,0,0-4.365.858A9.744,9.744,0,0,0,8.788,8.195a10.692,10.692,0,0,0-2.125,3.546,12.742,12.742,0,0,0-.747,4.433,11.985,11.985,0,0,0,.8,4.4,11.794,11.794,0,0,0,2.183,3.6,10.059,10.059,0,0,0,3.274,2.431,9.5,9.5,0,0,0,4.078.886,10.086,10.086,0,0,0,4.394-.944,9.2,9.2,0,0,0,3.475-3Z" transform="translate(0 -0.102)"/></g><path class="a" d="M22.506,54.647H32.787L27.675,41.778Zm-4.595,11.5h-5.8l13.1-30.656h5.112L43.356,66.143H37.383l-2.872-7.092H20.84Z" transform="translate(19.309 56.586)"/><path class="a" d="M31.814,49.98h4.652a7.894,7.894,0,0,0,4.682-1.251,4.369,4.369,0,0,0,1.752-3.81,4.335,4.335,0,0,0-1.608-3.64,7.354,7.354,0,0,0-4.6-1.251H31.814ZM26.3,35.509H36.983q5.342,0,8.386,2.424a8.339,8.339,0,0,1,3.044,6.927,8.56,8.56,0,0,1-3.159,7.157,13.3,13.3,0,0,1-8.444,2.48h-5V66.109H26.3Z" transform="translate(41.936 56.621)"/><path class="a" d="M37.448,66.143h5.514V35.487H37.448Z" transform="translate(59.713 56.586)"/><path class="a" d="M56.854,66.109H51.339V40.028H41.92V35.509H66.388v4.519H56.854Z" transform="translate(66.844 56.621)"/><path class="a" d="M61.266,54.647H71.548L66.436,41.778Zm-4.595,11.5h-5.8l13.1-30.656h5.112L82.116,66.143H76.143l-2.872-7.092H59.6Z" transform="translate(81.115 56.586)"/><path class="a" d="M70.574,61.511H83.785v4.633H65.06V35.487h5.514Z" transform="translate(103.742 56.586)"/><path class="a" d="M24.411,60.978a9.185,9.185,0,0,0-3.36-2.345,11.522,11.522,0,0,0-4.509-.858,10.891,10.891,0,0,0-4.422.858,9.733,9.733,0,0,0-3.332,2.374,10.623,10.623,0,0,0-2.125,3.574,12.813,12.813,0,0,0-.747,4.4,12.393,12.393,0,0,0,.775,4.4,11.077,11.077,0,0,0,2.183,3.6,10.031,10.031,0,0,0,3.417,2.431,10.986,10.986,0,0,0,4.48.887,14.636,14.636,0,0,0,6.2-1.2v-7.55H16.485V67.04h12V82.418a22.931,22.931,0,0,1-5.428,2.037,27.177,27.177,0,0,1-6.4.717,18.384,18.384,0,0,1-6.749-1.2,15.021,15.021,0,0,1-8.673-8.465A16.823,16.823,0,0,1,0,68.985a16.648,16.648,0,0,1,1.264-6.578A15.043,15.043,0,0,1,4.71,57.346a15.611,15.611,0,0,1,5.2-3.26,18,18,0,0,1,6.577-1.172,18.915,18.915,0,0,1,6.749,1.144,15.594,15.594,0,0,1,5.026,2.974Z" transform="translate(0 84.374)"/><path class="a" d="M19.66,66.4h4.767a12.361,12.361,0,0,0,2.413-.227,6.243,6.243,0,0,0,2.039-.767A3.825,3.825,0,0,0,30.8,61.854a3.748,3.748,0,0,0-.488-1.988,3.7,3.7,0,0,0-1.321-1.279,5.5,5.5,0,0,0-1.924-.653,14.9,14.9,0,0,0-2.3-.171H19.66Zm0,17.444H14.146v-30.6H25.088a21.089,21.089,0,0,1,4.326.427,10.935,10.935,0,0,1,3.58,1.4,6.878,6.878,0,0,1,2.435,2.621,8.44,8.44,0,0,1,.889,4.044A7.955,7.955,0,0,1,34.455,67.2a9.577,9.577,0,0,1-4.841,2.906L37.6,83.843H31.222L24.065,70.918h-4.4Z" transform="translate(22.557 84.901)"/><path class="a" d="M51.843,68.986a12.768,12.768,0,0,0-.746-4.433,10.473,10.473,0,0,0-2.154-3.546,9.978,9.978,0,0,0-3.389-2.374,11.1,11.1,0,0,0-4.452-.858,10.744,10.744,0,0,0-4.365.858A9.743,9.743,0,0,0,33.4,61.007a10.689,10.689,0,0,0-2.125,3.546,12.744,12.744,0,0,0-.746,4.433,13.222,13.222,0,0,0,.746,4.49,10.559,10.559,0,0,0,2.125,3.6,9.737,9.737,0,0,0,3.332,2.374,10.744,10.744,0,0,0,4.365.857,11.1,11.1,0,0,0,4.452-.857,9.971,9.971,0,0,0,3.389-2.374,10.349,10.349,0,0,0,2.154-3.6,13.247,13.247,0,0,0,.746-4.49m5.916,0a16.519,16.519,0,0,1-1.264,6.52,15.266,15.266,0,0,1-3.5,5.119,16.075,16.075,0,0,1-5.284,3.346,17.843,17.843,0,0,1-6.606,1.2,17.455,17.455,0,0,1-6.519-1.2,15.813,15.813,0,0,1-5.227-3.346,15.458,15.458,0,0,1-3.475-5.119,17.609,17.609,0,0,1,0-13.1,14.851,14.851,0,0,1,3.475-5.062,15.94,15.94,0,0,1,5.227-3.26A17.85,17.85,0,0,1,41.1,52.913a18.248,18.248,0,0,1,6.606,1.172,16.21,16.21,0,0,1,5.284,3.26,14.674,14.674,0,0,1,3.5,5.062,16.675,16.675,0,0,1,1.264,6.578" transform="translate(39.254 84.374)"/><path class="a" d="M52.516,84.679a14.258,14.258,0,0,1-5.342-.944,11.466,11.466,0,0,1-3.963-2.574A10.8,10.8,0,0,1,40.77,77.3a13.784,13.784,0,0,1-.833-4.861V53.222h5.514V72.039a11.03,11.03,0,0,0,.374,2.917,7.014,7.014,0,0,0,1.206,2.46,5.734,5.734,0,0,0,2.183,1.715,8.972,8.972,0,0,0,6.6,0,6,6,0,0,0,2.212-1.715,6.786,6.786,0,0,0,1.235-2.46,11.073,11.073,0,0,0,.374-2.917V53.222h5.514V72.44a13.376,13.376,0,0,1-.861,4.861,11.14,11.14,0,0,1-2.47,3.861,11.481,11.481,0,0,1-3.963,2.574,14.262,14.262,0,0,1-5.342.944" transform="translate(63.682 84.866)"/><path class="a" d="M58.2,67.715h4.652a7.894,7.894,0,0,0,4.682-1.251,4.973,4.973,0,0,0,.144-7.45,7.354,7.354,0,0,0-4.6-1.251H58.2ZM52.688,53.244H63.372q5.342,0,8.386,2.424A8.339,8.339,0,0,1,74.8,62.6a8.56,8.56,0,0,1-3.159,7.157,13.3,13.3,0,0,1-8.444,2.48h-5V83.844H52.688Z" transform="translate(84.014 84.901)"/><path class="a" d="M68.443,58.172a2.354,2.354,0,0,0,.91-.179.707.707,0,0,0,.431-.727.651.651,0,0,0-.4-.666,2.1,2.1,0,0,0-.827-.167h-1v1.739ZM66.457,55.5h2.154a3.705,3.705,0,0,1,.838.1,2.236,2.236,0,0,1,.73.309,1.619,1.619,0,0,1,.515.549,1.652,1.652,0,0,1,.191.834,1.541,1.541,0,0,1-.382,1.084,1.913,1.913,0,0,1-1.029.56L71.123,61.6h-1.34l-1.436-2.55h-.79V61.6h-1.1Zm-2.465,3.074a4.4,4.4,0,0,0,.359,1.762,4.7,4.7,0,0,0,.982,1.466,4.586,4.586,0,0,0,6.509,0,4.711,4.711,0,0,0,.982-1.466,4.409,4.409,0,0,0,.359-1.762,4.477,4.477,0,0,0-.359-1.787,4.569,4.569,0,0,0-2.442-2.431,4.683,4.683,0,0,0-3.589,0A4.57,4.57,0,0,0,64.35,56.79,4.469,4.469,0,0,0,63.992,58.577Zm-.861,0a5.232,5.232,0,0,1,.43-2.11,5.367,5.367,0,0,1,1.173-1.715A5.633,5.633,0,0,1,66.469,53.6a5.443,5.443,0,0,1,4.236,0,5.658,5.658,0,0,1,1.735,1.157,5.376,5.376,0,0,1,1.173,1.715,5.232,5.232,0,0,1,.43,2.11,5.147,5.147,0,0,1-.43,2.1,5.418,5.418,0,0,1-1.173,1.7A5.479,5.479,0,0,1,70.7,63.521a5.475,5.475,0,0,1-7.144-2.847A5.147,5.147,0,0,1,63.13,58.577Z" transform="translate(100.665 84.778)"/><path class="a" d="M313.342,35.982V66.646h-3.009L291.886,41.1V66.646h-2.992V35.982H291.9L310.35,61.531V35.982ZM262.775,55.717,269.358,40.4l6.351,15.313Zm5.4-19.679L254.843,66.646h3.207l3.52-8.061h15.368l3.3,8.061h3.26L270.573,36.038ZM249.535,60.2l2.048,2.173-.57.6a13.982,13.982,0,0,1-4.8,3.265,17.165,17.165,0,0,1-12.586-.03,14.857,14.857,0,0,1-8.245-8.513,18.477,18.477,0,0,1,0-12.829,14.851,14.851,0,0,1,8.245-8.512,16.124,16.124,0,0,1,6.293-1.211,16.61,16.61,0,0,1,5.694,1,13.534,13.534,0,0,1,4.809,2.974l.664.642-2.2,2.053-.6-.62a9.266,9.266,0,0,0-3.755-2.28,14.534,14.534,0,0,0-4.608-.787,12.72,12.72,0,0,0-5.174,1.036,12.082,12.082,0,0,0-6.6,6.984,14.94,14.94,0,0,0,0,10.331,12.984,12.984,0,0,0,2.563,4.22,11.866,11.866,0,0,0,3.982,2.819,13.557,13.557,0,0,0,10.276.051,11.544,11.544,0,0,0,3.922-2.685Zm-35.244,6.441h2.992V35.982h-2.992Zm-23.827-27.8h5.488a15.238,15.238,0,0,1,3.009.289,7.018,7.018,0,0,1,2.358.909,4.575,4.575,0,0,1,1.549,1.638,5.149,5.149,0,0,1,.583,2.569,4.486,4.486,0,0,1-1.718,3.858,9.028,9.028,0,0,1-5.447,1.379h-5.823Zm10.2,12.891a9.138,9.138,0,0,0,2.874-1.386,7.078,7.078,0,0,0,2.106-2.471,7.765,7.765,0,0,0,.8-3.63,7.917,7.917,0,0,0-.926-3.965,7.406,7.406,0,0,0-2.439-2.583,10.011,10.011,0,0,0-3.309-1.343,17.126,17.126,0,0,0-3.594-.381h-8.7V66.646h2.992V52.359h5.207l8.437,14.287h3.449l-8.648-14.51A15.644,15.644,0,0,0,200.666,51.741Zm-20.834,14.9H160.469V35.982h18.748V38.85H163.461V49.324h14.806v2.868H163.461V63.777h16.37ZM148.855,42.12,137.9,66.646h-2.149L124.8,42.229V66.646h-2.992V35.982h3.522l11.5,25.839,11.5-25.839h3.522V66.646h-2.992Zm-52.944,13.6L102.494,40.4l6.352,15.314Zm5.4-19.679L87.98,66.646h3.206l3.521-8.061h15.368l3.3,8.061h3.26L103.709,36.038Z" transform="translate(140.289 56.046)"/><path class="a" d="M225.516,70.5a12.213,12.213,0,0,0-2.981-1.681q-1.6-.643-3.509-1.276a25.062,25.062,0,0,1-2.456-.887,8.551,8.551,0,0,1-2.027-1.184,5.4,5.4,0,0,1-1.371-1.627,4.735,4.735,0,0,1-.5-2.3,4.959,4.959,0,0,1,.563-2.414,5.777,5.777,0,0,1,1.5-1.788,6.5,6.5,0,0,1,2.143-1.1,8.8,8.8,0,0,1,2.563-.378,8.426,8.426,0,0,1,3.415.675,6.317,6.317,0,0,1,2.48,1.929l.575.742,2.283-2-.517-.653a9.338,9.338,0,0,0-3.512-2.7,11.213,11.213,0,0,0-4.668-.968,11.861,11.861,0,0,0-3.682.572,9.686,9.686,0,0,0-3.133,1.683,8.293,8.293,0,0,0-2.186,2.733,8.835,8.835,0,0,0-.119,7.166,7.445,7.445,0,0,0,1.93,2.487,10.618,10.618,0,0,0,2.8,1.669c1,.415,2.107.817,3.281,1.192.916.293,1.83.614,2.716.956a10.251,10.251,0,0,1,2.264,1.2,5.142,5.142,0,0,1,1.481,1.614,4.666,4.666,0,0,1,.526,2.342,5.164,5.164,0,0,1-.543,2.428,5.635,5.635,0,0,1-1.449,1.781,6.2,6.2,0,0,1-2.129,1.093,9.274,9.274,0,0,1-2.653.38,9.8,9.8,0,0,1-3.82-.765,8.724,8.724,0,0,1-3.122-2.224l-.583-.648-2.252,1.977.554.656a10.807,10.807,0,0,0,4.01,2.936,13.131,13.131,0,0,0,5.27,1.046,12.226,12.226,0,0,0,3.613-.54,8.993,8.993,0,0,0,3.127-1.666,8.468,8.468,0,0,0,2.151-2.727,8.24,8.24,0,0,0,.819-3.728,7.527,7.527,0,0,0-.771-3.52A7.648,7.648,0,0,0,225.516,70.5Zm-44.35,11.014H187.1a19.441,19.441,0,0,0,5.666-.8,12.664,12.664,0,0,0,4.416-2.309,10.453,10.453,0,0,0,2.86-3.8,13.2,13.2,0,0,0,1.039-5.448,13.6,13.6,0,0,0-1.043-5.511,10.614,10.614,0,0,0-2.863-3.88,12.754,12.754,0,0,0-4.418-2.363,18.839,18.839,0,0,0-5.657-.822h-5.935Zm21.572-19.248a16.545,16.545,0,0,1,1.337,6.9,16.014,16.014,0,0,1-1.34,6.791,13.448,13.448,0,0,1-3.618,4.753,15.043,15.043,0,0,1-5.339,2.778,22.5,22.5,0,0,1-6.4.9h-9.206V53.718h9.206a22.226,22.226,0,0,1,6.372.9,15.133,15.133,0,0,1,5.338,2.805A13.474,13.474,0,0,1,202.738,62.265Zm-35.966,17L148.326,53.718h-3.009V84.381h2.992V58.833l18.447,25.548h3.009V53.718h-2.993Zm-32.8-6.825a15.019,15.019,0,0,1-.474,3.808,7.973,7.973,0,0,1-1.509,3.033,7.82,7.82,0,0,1-2.716,2.1,11.094,11.094,0,0,1-8.284,0,7.823,7.823,0,0,1-2.716-2.1,7.98,7.98,0,0,1-1.509-3.033,15.042,15.042,0,0,1-.474-3.808V53.662H113.3v18.89a17.47,17.47,0,0,0,.619,4.681,11.224,11.224,0,0,0,2.031,4.036,10.059,10.059,0,0,0,3.7,2.835,14.777,14.777,0,0,0,10.968,0,10.057,10.057,0,0,0,3.7-2.835,11.235,11.235,0,0,0,2.031-4.036,17.464,17.464,0,0,0,.619-4.681V53.662H133.97ZM88.311,53.718h18.357v2.868H91.3v10.7h14.3V70.15H91.3V84.381H88.311Z" transform="translate(140.817 84.327)"/><path class="a" d="M10.235,49.207H41.864V17.686H10.235ZM.4,59.011H51.7V7.882H.4Z" transform="translate(0.633 12.569)"/><path class="a" d="M18.144,41.324H49.774V9.8H18.144Zm-9.838,9.8h51.3V0H8.307Z" transform="translate(13.246)"/><path class="a" d="M149.286,57.958a2.353,2.353,0,0,0,.91-.179.707.707,0,0,0,.431-.727.652.652,0,0,0-.4-.667,2.107,2.107,0,0,0-.827-.167h-1v1.739ZM147.3,55.289h2.154a3.705,3.705,0,0,1,.838.1,2.232,2.232,0,0,1,.729.309,1.618,1.618,0,0,1,.515.549,1.649,1.649,0,0,1,.191.834,1.541,1.541,0,0,1-.382,1.084,1.916,1.916,0,0,1-1.029.56l1.651,2.669h-1.34l-1.436-2.55H148.4v2.55h-1.1Zm-2.465,3.075a4.411,4.411,0,0,0,.359,1.762,4.718,4.718,0,0,0,.982,1.465,4.584,4.584,0,0,0,6.509,0,4.725,4.725,0,0,0,.982-1.465,4.411,4.411,0,0,0,.359-1.762,4.478,4.478,0,0,0-.359-1.787,4.567,4.567,0,0,0-2.442-2.432,4.689,4.689,0,0,0-3.589,0,4.572,4.572,0,0,0-2.442,2.432A4.478,4.478,0,0,0,144.834,58.364Zm-.861,0a5.231,5.231,0,0,1,.431-2.11,5.369,5.369,0,0,1,1.173-1.715,5.641,5.641,0,0,1,1.735-1.157,5.443,5.443,0,0,1,4.236,0,5.657,5.657,0,0,1,1.735,1.157,5.369,5.369,0,0,1,1.173,1.715,5.231,5.231,0,0,1,.431,2.11,5.148,5.148,0,0,1-.431,2.1,5.414,5.414,0,0,1-1.173,1.7,5.472,5.472,0,0,1-1.735,1.144,5.475,5.475,0,0,1-7.144-2.847A5.147,5.147,0,0,1,143.973,58.364Z" transform="translate(229.574 84.438)"/></g></g></g></g></svg>