<svg xmlns="http://www.w3.org/2000/svg" xmlns:xlink="http://www.w3.org/1999/xlink" width="72.277" height="65.347" viewBox="0 0 72.277 65.347">
  <defs>
    <linearGradient id="linear-gradient" x1="0.756" y1="-0.104" x2="0.244" y2="1.104" gradientUnits="objectBoundingBox">
      <stop offset="0" stop-color="#009cdb"/>
      <stop offset="1" stop-color="#005e9e"/>
    </linearGradient>
    <linearGradient id="linear-gradient-2" x1="0.756" y1="-0.104" x2="0.244" y2="1.104" gradientUnits="objectBoundingBox">
      <stop offset="0" stop-color="#a3c8d8"/>
      <stop offset="1" stop-color="#6b7e89"/>
    </linearGradient>
  </defs>
  <g id="CG_Tal_-_Color" data-name="CG Tal - Color" transform="translate(0)">
    <path id="Fill-1" d="M3.793,15.927H15.984V3.779H3.793ZM0,19.706H19.776V0H0Z" transform="translate(0.396 7.882)" fill-rule="evenodd" fill="url(#linear-gradient)"/>
    <path id="Fill-4" d="M0,19.706H19.776V0H0Zm3.792-3.779H15.984V3.779H3.793Z" transform="translate(8.305)" fill-rule="evenodd" fill="url(#linear-gradient-2)"/>
    <path id="Fill-8" d="M10.98,10.308a6.406,6.406,0,0,1-1.948,1.631,5.794,5.794,0,0,1-2.767.6,6.917,6.917,0,0,1-2.546-.452,5.823,5.823,0,0,1-1.981-1.268A5.593,5.593,0,0,1,.454,8.853,6.888,6.888,0,0,1,0,6.3,6.42,6.42,0,0,1,.487,3.761,5.723,5.723,0,0,1,1.826,1.81,6.11,6.11,0,0,1,3.852.554,7.03,7.03,0,0,1,6.4.1,6.279,6.279,0,0,1,8.888.6,4.552,4.552,0,0,1,10.759,2.02L9.1,3.32a2.983,2.983,0,0,0-1.2-1,3.617,3.617,0,0,0-1.55-.342,4.137,4.137,0,0,0-1.682.331,3.756,3.756,0,0,0-1.284.915,4.121,4.121,0,0,0-.819,1.367A4.911,4.911,0,0,0,2.28,6.3a4.619,4.619,0,0,0,.31,1.7,4.546,4.546,0,0,0,.841,1.389,3.877,3.877,0,0,0,1.262.937,3.662,3.662,0,0,0,1.572.342A3.887,3.887,0,0,0,7.959,10.3,3.546,3.546,0,0,0,9.3,9.14Z" transform="translate(0 35.076)" fill-rule="evenodd"/>
    <path id="Fill-11" d="M16.116,42.872h3.963l-1.97-4.96ZM14.345,47.3H12.109l5.048-11.816h1.97L24.153,47.3h-2.3l-1.107-2.733H15.474Z" transform="translate(0)" fill-rule="evenodd"/>
    <path id="Fill-13" d="M28.425,41.086h1.793a3.042,3.042,0,0,0,1.8-.482,1.917,1.917,0,0,0,.055-2.871,2.834,2.834,0,0,0-1.771-.482H28.425ZM26.3,35.509h4.118a5.057,5.057,0,0,1,3.232.934,3.214,3.214,0,0,1,1.173,2.67,3.3,3.3,0,0,1-1.217,2.759,5.126,5.126,0,0,1-3.254.956H28.425V47.3H26.3Z" transform="translate(0)" fill-rule="evenodd"/>
    <path id="Fill-15" d="M37.448,47.3h2.125V35.487H37.448Z" transform="translate(0)" fill-rule="evenodd"/>
    <path id="Fill-17" d="M47.676,47.3H45.55V37.25H41.92V35.509H51.35V37.25H47.676Z" transform="translate(0)" fill-rule="evenodd"/>
    <path id="Fill-18" d="M54.877,42.872h3.963l-1.97-4.96ZM53.106,47.3H50.87l5.048-11.816h1.97L62.913,47.3h-2.3L59.5,44.569H54.235Z" transform="translate(0)" fill-rule="evenodd"/>
    <path id="Fill-19" d="M67.185,45.517h5.092V47.3H65.06V35.487h2.125Z" transform="translate(0)" fill-rule="evenodd"/>
    <path id="Fill-20" d="M9.409,56.022a3.54,3.54,0,0,0-1.3-.9,4.441,4.441,0,0,0-1.738-.331,4.2,4.2,0,0,0-1.7.331,3.752,3.752,0,0,0-1.284.915,4.094,4.094,0,0,0-.819,1.378,4.939,4.939,0,0,0-.288,1.7,4.777,4.777,0,0,0,.3,1.7,4.269,4.269,0,0,0,.841,1.389,3.866,3.866,0,0,0,1.317.937,4.234,4.234,0,0,0,1.727.342,5.641,5.641,0,0,0,2.391-.463V60.1h-2.5V58.358h4.627v5.927a8.838,8.838,0,0,1-2.092.785,10.474,10.474,0,0,1-2.468.276,7.086,7.086,0,0,1-2.6-.463A5.789,5.789,0,0,1,.476,61.621,6.484,6.484,0,0,1,0,59.108a6.417,6.417,0,0,1,.487-2.535,5.8,5.8,0,0,1,1.328-1.951,6.017,6.017,0,0,1,2-1.256,6.938,6.938,0,0,1,2.535-.452,7.29,7.29,0,0,1,2.6.441A6.01,6.01,0,0,1,10.892,54.5Z" transform="translate(0)" fill-rule="evenodd"/>
    <path id="Fill-21" d="M16.271,58.314h1.837a4.764,4.764,0,0,0,.93-.087,2.406,2.406,0,0,0,.786-.3,1.474,1.474,0,0,0,.742-1.369,1.445,1.445,0,0,0-.188-.766,1.426,1.426,0,0,0-.509-.493,2.12,2.12,0,0,0-.742-.252,5.744,5.744,0,0,0-.885-.066h-1.97Zm0,6.723H14.146V53.244h4.217a8.128,8.128,0,0,1,1.667.165,4.214,4.214,0,0,1,1.38.538,2.651,2.651,0,0,1,.938,1.01,3.253,3.253,0,0,1,.342,1.559,3.066,3.066,0,0,1-.718,2.108,3.691,3.691,0,0,1-1.866,1.12l3.077,5.294H20.728l-2.759-4.982h-1.7Z" transform="translate(0)" fill-rule="evenodd"/>
    <path id="Fill-22" d="M35.111,59.108a4.921,4.921,0,0,0-.288-1.708,4.037,4.037,0,0,0-.83-1.367,3.846,3.846,0,0,0-1.306-.915,4.28,4.28,0,0,0-1.716-.331,4.141,4.141,0,0,0-1.682.331A3.755,3.755,0,0,0,28,56.033a4.12,4.12,0,0,0-.819,1.367,4.912,4.912,0,0,0-.288,1.708,5.1,5.1,0,0,0,.288,1.73A4.07,4.07,0,0,0,28,62.227a3.753,3.753,0,0,0,1.284.915,4.141,4.141,0,0,0,1.682.33,4.28,4.28,0,0,0,1.716-.33,3.843,3.843,0,0,0,1.306-.915,3.989,3.989,0,0,0,.83-1.389,5.106,5.106,0,0,0,.288-1.73m2.28,0a6.367,6.367,0,0,1-.487,2.513,5.884,5.884,0,0,1-1.351,1.973,6.2,6.2,0,0,1-2.037,1.29,6.877,6.877,0,0,1-2.546.463,6.727,6.727,0,0,1-2.512-.463,6.1,6.1,0,0,1-2.015-1.29A5.958,5.958,0,0,1,25.1,61.621a6.787,6.787,0,0,1,0-5.048,5.724,5.724,0,0,1,1.339-1.951,6.144,6.144,0,0,1,2.015-1.257,6.88,6.88,0,0,1,2.512-.452,7.033,7.033,0,0,1,2.546.452,6.248,6.248,0,0,1,2.037,1.257A5.656,5.656,0,0,1,36.9,56.573a6.427,6.427,0,0,1,.487,2.535" transform="translate(0)" fill-rule="evenodd"/>
    <path id="Fill-23" d="M44.785,65.347a5.5,5.5,0,0,1-2.059-.364,4.419,4.419,0,0,1-1.528-.992,4.162,4.162,0,0,1-.941-1.488,5.313,5.313,0,0,1-.321-1.874V53.222h2.125v7.252a4.251,4.251,0,0,0,.144,1.124,2.7,2.7,0,0,0,.465.948,2.21,2.21,0,0,0,.841.661,3.458,3.458,0,0,0,2.546,0,2.313,2.313,0,0,0,.852-.661,2.615,2.615,0,0,0,.476-.948,4.268,4.268,0,0,0,.144-1.124V53.222h2.125v7.407a5.156,5.156,0,0,1-.332,1.874,4.294,4.294,0,0,1-.952,1.488,4.425,4.425,0,0,1-1.528.992,5.5,5.5,0,0,1-2.059.364" transform="translate(0)" fill-rule="evenodd"/>
    <path id="Fill-24" d="M54.813,58.821h1.793a3.042,3.042,0,0,0,1.8-.482,1.917,1.917,0,0,0,.055-2.871,2.834,2.834,0,0,0-1.771-.482H54.813Zm-2.125-5.577h4.118a5.057,5.057,0,0,1,3.232.934,3.214,3.214,0,0,1,1.173,2.67,3.3,3.3,0,0,1-1.217,2.759,5.126,5.126,0,0,1-3.254.956H54.813v4.475H52.688Z" transform="translate(0)" fill-rule="evenodd"/>
    <path id="Fill-25" d="M65.178,55.1a.907.907,0,0,0,.351-.069.273.273,0,0,0,.166-.28.251.251,0,0,0-.152-.257.808.808,0,0,0-.319-.064h-.387v.67Zm-.765-1.029h.83a1.428,1.428,0,0,1,.323.037.862.862,0,0,1,.281.119.624.624,0,0,1,.2.212.637.637,0,0,1,.074.321.594.594,0,0,1-.147.418.737.737,0,0,1-.4.216l.636,1.029h-.516l-.553-.983h-.3v.983h-.424Zm-.95,1.185a1.7,1.7,0,0,0,.138.679,1.812,1.812,0,0,0,.378.565,1.767,1.767,0,0,0,2.509,0,1.816,1.816,0,0,0,.378-.565A1.7,1.7,0,0,0,67,55.252a1.726,1.726,0,0,0-.138-.689,1.761,1.761,0,0,0-.941-.937,1.805,1.805,0,0,0-1.383,0,1.761,1.761,0,0,0-.941.937A1.722,1.722,0,0,0,63.462,55.252Zm-.332,0a2.017,2.017,0,0,1,.166-.813,2.069,2.069,0,0,1,.452-.661,2.171,2.171,0,0,1,.669-.446,2.1,2.1,0,0,1,1.633,0,2.181,2.181,0,0,1,.669.446,2.072,2.072,0,0,1,.452.661,2.017,2.017,0,0,1,.166.813,1.984,1.984,0,0,1-.166.808,2.088,2.088,0,0,1-.452.657,2.112,2.112,0,0,1-.669.441,2.11,2.11,0,0,1-2.753-1.1A1.984,1.984,0,0,1,63.13,55.252Z" transform="translate(0)" fill-rule="evenodd"/>
  </g>
</svg>
