<svg xmlns="http://www.w3.org/2000/svg" width="1920.015" height="1080.029" viewBox="0 0 1920.015 1080.029"><defs><style>.a{fill:#0b0e10;opacity:0.3;}.b{mix-blend-mode:soft-light;}.b,.e{isolation:isolate;}.c,.d,.f,.g{fill:none;stroke-width:24px;}.c,.f{stroke:#009cdc;}.d,.g{stroke:#00aea9;}.f,.g{opacity:0.2;}</style></defs><g transform="translate(0 10)"><path class="a" d="M1975.015,1178.029l-1919.974-.015L55,98l1920,0ZM1102,400V883h483V400Z" transform="translate(-55 -108)"/><g transform="translate(50)"><g class="b" transform="translate(589)"><path class="c" d="M4283.691,4397h1542v790" transform="translate(-4922.691 -4117)"/><path class="d" d="M5500.691,5304.182h-885v-797" transform="translate(-4219.691 -4517.182)"/></g><g class="e" transform="translate(589)"><path class="f" d="M4283.691,4397h1542v790" transform="translate(-4922.691 -4117)"/><path class="g" d="M5500.691,5304.182h-885v-797" transform="translate(-4219.691 -4517.182)"/></g><g class="e" transform="translate(589)"><path class="f" d="M4283.691,4397h1542l-.059,789.936" transform="translate(-4922.691 -4117)"/><path class="g" d="M5500.691,5304.182h-885v-797" transform="translate(-4219.691 -4517.182)"/></g></g></g></svg>