<svg xmlns="http://www.w3.org/2000/svg" width="120" height="100.001" viewBox="0 0 120 100.001"><defs><style>.a{fill:#fff;}</style></defs><g transform="translate(-466.152 -270.521)"><path class="a" d="M508.8,325.745h-5.808a4.36,4.36,0,0,1-4.369-4.343v-2.885h3.144V321.4a1.222,1.222,0,0,0,1.224,1.217H508.8a1.222,1.222,0,0,0,1.224-1.217V315.63a1.222,1.222,0,0,0-1.224-1.215h-5.808a4.359,4.359,0,0,1-4.369-4.343V304.3a4.359,4.359,0,0,1,4.369-4.343H508.8a4.36,4.36,0,0,1,4.371,4.343v2.887h-3.146V304.3a1.223,1.223,0,0,0-1.224-1.219h-5.808a1.223,1.223,0,0,0-1.224,1.219v5.77a1.223,1.223,0,0,0,1.224,1.219H508.8a4.361,4.361,0,0,1,4.371,4.34V321.4a4.361,4.361,0,0,1-4.371,4.343" transform="translate(20.096 24.194)"/><rect class="a" width="3.145" height="3.159" transform="translate(524.424 322.578)"/><rect class="a" width="3.145" height="3.159" transform="translate(524.424 348.367)"/><path class="a" d="M468.977,352.565H583.013V291.8H468.977Zm116.863,3.126H466.152V288.677H585.84Z" transform="translate(0 14.83)"/><path class="a" d="M513.984,296.474a21.847,21.847,0,1,0,21.988,21.847,21.942,21.942,0,0,0-21.988-21.847m0,46.819a24.972,24.972,0,1,1,25.132-24.971,25.08,25.08,0,0,1-25.132,24.971" transform="translate(12.012 18.696)"/><rect class="a" width="119.688" height="3.126" transform="translate(466.152 286.685)"/><rect class="a" width="119.688" height="3.126" transform="translate(466.152 294.842)"/><rect class="a" width="120" height="3" transform="translate(466.152 270.521)"/><rect class="a" width="119.688" height="3.126" transform="translate(466.152 278.794)"/><path class="a" d="M526.3,305.67a5.042,5.042,0,1,0,5.074,5.043,5.064,5.064,0,0,0-5.074-5.043m0,13.21a8.167,8.167,0,1,1,8.22-8.167,8.2,8.2,0,0,1-8.22,8.167" transform="translate(31.962 26.337)"/><path class="a" d="M486.353,305.67a5.042,5.042,0,1,0,5.074,5.043,5.065,5.065,0,0,0-5.074-5.043m0,13.21a8.167,8.167,0,1,1,8.22-8.167,8.2,8.2,0,0,1-8.22,8.167" transform="translate(7.373 26.337)"/><path class="a" d="M472.741,309.238H469.6V292.1h17.247v3.124h-14.1Z" transform="translate(2.849 17.72)"/><path class="a" d="M486.844,329.691H469.6V312.554h3.146v14.011h14.1Z" transform="translate(2.848 34.58)"/><path class="a" d="M543.426,309.238h-3.145V295.222h-14.1V292.1h17.248Z" transform="translate(36.121 17.72)"/><path class="a" d="M543.426,329.691H526.178v-3.126h14.1V312.554h3.145Z" transform="translate(36.121 34.58)"/></g></svg>