<svg xmlns="http://www.w3.org/2000/svg" xmlns:xlink="http://www.w3.org/1999/xlink" width="73" height="73" viewBox="0 0 73 73"><defs><style>.a,.d{fill:none;}.b{clip-path:url(#a);}.c{fill:#00aea9;}.d{stroke:#fff;stroke-miterlimit:10;}</style><clipPath id="a"><rect class="a" width="73" height="73" transform="translate(0 0)"/></clipPath></defs><g transform="translate(-94.5 -386.29)"><g class="b" transform="translate(94.5 386.29)"><path class="c" d="M167.3,422.446a36.4,36.4,0,1,1-36.4-36.4,36.4,36.4,0,0,1,36.4,36.4" transform="translate(-94.5 -386.248)"/><path class="d" d="M128.574,417.142l-5.482-4.385v4.385H112.124V406.174h10.968v4.387l5.482-4.387Z" transform="translate(-83.614 -373.816)"/><path class="d" d="M141.886,403.453H127.7l6.149-6.15-1.307-1.328-7.479,7.479-7.477-7.479-1.328,1.328,6.168,6.15H108.235a3.737,3.737,0,0,0-3.738,3.74v22.432a3.75,3.75,0,0,0,3.738,3.738h33.651a3.75,3.75,0,0,0,3.738-3.738V407.193A3.737,3.737,0,0,0,141.886,403.453Zm0,26.172H108.235V407.193h33.651Z" transform="translate(-88.325 -380.117)"/></g></g></svg>