<svg xmlns="http://www.w3.org/2000/svg" width="121.353" height="109.717" viewBox="0 0 121.353 109.717"><defs><style>.a{fill:#fff;fill-rule:evenodd;}</style></defs><g transform="translate(0)"><g transform="translate(0)"><g transform="translate(0 59.064)"><path class="a" d="M18.436,17.238a10.756,10.756,0,0,1-3.271,2.739,9.729,9.729,0,0,1-4.646,1,11.614,11.614,0,0,1-4.274-.759A9.777,9.777,0,0,1,2.918,18.09,9.391,9.391,0,0,1,.762,14.8,11.565,11.565,0,0,1,0,10.5,10.78,10.78,0,0,1,.818,6.246,9.609,9.609,0,0,1,3.067,2.97,10.258,10.258,0,0,1,6.467.86,11.8,11.8,0,0,1,10.742.1a10.542,10.542,0,0,1,4.182.833,7.642,7.642,0,0,1,3.141,2.387L15.277,5.505A5.009,5.009,0,0,0,13.27,3.821a6.072,6.072,0,0,0-2.6-.573A6.946,6.946,0,0,0,7.843,3.8,6.306,6.306,0,0,0,5.687,5.339,6.919,6.919,0,0,0,4.312,7.634,8.245,8.245,0,0,0,3.828,10.5a7.755,7.755,0,0,0,.521,2.85,7.632,7.632,0,0,0,1.412,2.332A6.509,6.509,0,0,0,7.88,17.257a6.148,6.148,0,0,0,2.639.573,6.527,6.527,0,0,0,2.844-.611,5.954,5.954,0,0,0,2.249-1.943Z" transform="translate(0 -0.102)"/></g><path class="a" d="M18.837,47.886h6.653l-3.308-8.328Zm-2.973,7.439H12.109l8.475-19.838h3.308L32.33,55.325H28.464l-1.859-4.589H17.759Z" transform="translate(8.222 24.096)"/><path class="a" d="M29.868,44.873h3.011a5.108,5.108,0,0,0,3.03-.81A3.218,3.218,0,0,0,36,39.243a4.759,4.759,0,0,0-2.974-.81H29.868ZM26.3,35.509h6.914a8.49,8.49,0,0,1,5.427,1.569,5.4,5.4,0,0,1,1.97,4.483,5.54,5.54,0,0,1-2.044,4.632A8.607,8.607,0,0,1,33.1,47.8H29.868v7.514H26.3Z" transform="translate(17.857 24.11)"/><path class="a" d="M37.448,55.325h3.568V35.487H37.448Z" transform="translate(25.427 24.096)"/><path class="a" d="M51.584,55.311H48.015V38.433h-6.1V35.509H57.754v2.924h-6.17Z" transform="translate(28.464 24.11)"/><path class="a" d="M57.6,47.886h6.653l-3.308-8.328Zm-2.973,7.439H50.87l8.475-19.838h3.308L71.09,55.325H67.225l-1.859-4.589H56.519Z" transform="translate(34.541 24.096)"/><path class="a" d="M68.628,52.328h8.549v3H65.06V35.487h3.568Z" transform="translate(44.176 24.096)"/><path class="a" d="M15.8,58.132a5.944,5.944,0,0,0-2.175-1.518,7.456,7.456,0,0,0-2.918-.555,7.048,7.048,0,0,0-2.862.555,6.3,6.3,0,0,0-2.156,1.536,6.874,6.874,0,0,0-1.375,2.313,8.292,8.292,0,0,0-.483,2.85,8.02,8.02,0,0,0,.5,2.85A7.168,7.168,0,0,0,5.743,68.5a6.491,6.491,0,0,0,2.211,1.573,7.109,7.109,0,0,0,2.9.574,9.471,9.471,0,0,0,4.014-.777V64.979h-4.2V62.055h7.769v9.951a14.839,14.839,0,0,1-3.513,1.318,17.587,17.587,0,0,1-4.144.464,11.9,11.9,0,0,1-4.368-.777A9.72,9.72,0,0,1,.8,67.533,10.886,10.886,0,0,1,0,63.314a10.773,10.773,0,0,1,.818-4.257,9.735,9.735,0,0,1,2.23-3.276,10.1,10.1,0,0,1,3.364-2.11,11.649,11.649,0,0,1,4.256-.759,12.24,12.24,0,0,1,4.368.74,10.092,10.092,0,0,1,3.252,1.925Z" transform="translate(0 35.928)"/><path class="a" d="M17.715,61.757H20.8a8,8,0,0,0,1.561-.147,4.04,4.04,0,0,0,1.319-.5,2.475,2.475,0,0,0,1.245-2.3,2.425,2.425,0,0,0-.316-1.287,2.394,2.394,0,0,0-.855-.827,3.56,3.56,0,0,0-1.245-.423,9.644,9.644,0,0,0-1.487-.111H17.715Zm0,11.289H14.146v-19.8h7.081a13.648,13.648,0,0,1,2.8.276,7.076,7.076,0,0,1,2.317.9,4.451,4.451,0,0,1,1.576,1.7,5.462,5.462,0,0,1,.575,2.617,5.148,5.148,0,0,1-1.205,3.539,6.2,6.2,0,0,1-3.133,1.88l5.167,8.889H25.2l-4.632-8.365h-2.85Z" transform="translate(9.605 36.153)"/><path class="a" d="M42.236,63.314a8.262,8.262,0,0,0-.483-2.869,6.777,6.777,0,0,0-1.394-2.295,6.457,6.457,0,0,0-2.193-1.536,7.185,7.185,0,0,0-2.881-.555,6.953,6.953,0,0,0-2.825.555A6.3,6.3,0,0,0,30.3,58.151a6.917,6.917,0,0,0-1.375,2.295,8.247,8.247,0,0,0-.483,2.869,8.556,8.556,0,0,0,.483,2.905A6.833,6.833,0,0,0,30.3,68.551a6.3,6.3,0,0,0,2.156,1.536,6.953,6.953,0,0,0,2.825.555,7.185,7.185,0,0,0,2.881-.555,6.453,6.453,0,0,0,2.193-1.536,6.7,6.7,0,0,0,1.394-2.332,8.573,8.573,0,0,0,.483-2.905m3.829,0a10.69,10.69,0,0,1-.818,4.219,9.879,9.879,0,0,1-2.268,3.313,10.4,10.4,0,0,1-3.42,2.165,11.547,11.547,0,0,1-4.275.777,11.3,11.3,0,0,1-4.218-.777,10.233,10.233,0,0,1-3.382-2.165,10,10,0,0,1-2.249-3.313,11.4,11.4,0,0,1,0-8.476,9.611,9.611,0,0,1,2.249-3.276,10.315,10.315,0,0,1,3.382-2.11,11.551,11.551,0,0,1,4.218-.759,11.809,11.809,0,0,1,4.275.759,10.49,10.49,0,0,1,3.42,2.11,9.5,9.5,0,0,1,2.268,3.276,10.791,10.791,0,0,1,.818,4.257" transform="translate(16.715 35.928)"/><path class="a" d="M48.077,73.579a9.227,9.227,0,0,1-3.457-.611A7.42,7.42,0,0,1,42.055,71.3a6.988,6.988,0,0,1-1.58-2.5,8.92,8.92,0,0,1-.539-3.146V53.222H43.5V65.4a7.138,7.138,0,0,0,.242,1.888,4.539,4.539,0,0,0,.781,1.592,3.711,3.711,0,0,0,1.412,1.11,5.806,5.806,0,0,0,4.274,0,3.884,3.884,0,0,0,1.431-1.11,4.391,4.391,0,0,0,.8-1.592,7.166,7.166,0,0,0,.242-1.888V53.222h3.568V65.658A8.656,8.656,0,0,1,55.7,68.8a7.209,7.209,0,0,1-1.6,2.5,7.429,7.429,0,0,1-2.565,1.666,9.229,9.229,0,0,1-3.457.611" transform="translate(27.117 36.138)"/><path class="a" d="M56.256,62.608h3.011a5.108,5.108,0,0,0,3.03-.81,3.218,3.218,0,0,0,.093-4.821,4.759,4.759,0,0,0-2.974-.81H56.256Zm-3.568-9.364H59.6a8.49,8.49,0,0,1,5.427,1.569A5.4,5.4,0,0,1,67,59.3a5.54,5.54,0,0,1-2.044,4.632,8.607,8.607,0,0,1-5.464,1.605H56.256v7.514H52.688Z" transform="translate(35.775 36.153)"/><path class="a" d="M66.568,56.406a1.523,1.523,0,0,0,.589-.116.458.458,0,0,0,.279-.47.421.421,0,0,0-.256-.431,1.356,1.356,0,0,0-.535-.108H66v1.125Zm-1.285-1.727h1.394a2.4,2.4,0,0,1,.542.062,1.447,1.447,0,0,1,.472.2,1.048,1.048,0,0,1,.333.355,1.069,1.069,0,0,1,.123.54,1,1,0,0,1-.247.7,1.238,1.238,0,0,1-.666.362L68.3,58.626h-.867l-.929-1.65H66v1.65h-.712Zm-1.6,1.989a2.847,2.847,0,0,0,.232,1.14,3.043,3.043,0,0,0,.635.949,2.967,2.967,0,0,0,4.212,0,3.048,3.048,0,0,0,.635-.949,2.853,2.853,0,0,0,.232-1.14,2.9,2.9,0,0,0-.232-1.157,2.956,2.956,0,0,0-1.58-1.573,3.031,3.031,0,0,0-2.322,0,2.957,2.957,0,0,0-1.58,1.573A2.892,2.892,0,0,0,63.688,56.668Zm-.557,0a3.386,3.386,0,0,1,.279-1.365,3.473,3.473,0,0,1,.759-1.11,3.645,3.645,0,0,1,1.123-.748,3.522,3.522,0,0,1,2.741,0,3.661,3.661,0,0,1,1.123.748,3.478,3.478,0,0,1,.759,1.11,3.386,3.386,0,0,1,.279,1.365,3.331,3.331,0,0,1-.279,1.357,3.506,3.506,0,0,1-.759,1.1,3.546,3.546,0,0,1-1.123.74,3.543,3.543,0,0,1-4.623-1.843A3.331,3.331,0,0,1,63.13,56.668Z" transform="translate(42.865 36.1)"/><path class="a" d="M6.763,34.624H27.231v-20.4H6.763ZM.4,40.968H33.6V7.882H.4Z" transform="translate(0.27 5.352)"/><path class="a" d="M14.673,26.742H35.141V6.344H14.673ZM8.307,33.086h33.2V0H8.307Z" transform="translate(5.64)"/></g></g></svg>