<svg xmlns="http://www.w3.org/2000/svg" width="90.439" height="67.995" viewBox="0 0 90.439 67.995"><defs><style>.a{fill:#a49e99;}.b{fill:none;stroke:#a49e99;stroke-miterlimit:10;stroke-width:0.25px;}</style></defs><g transform="translate(-1497.7 -671.083)"><path class="a" d="M653.357,386.127l-.669-6.486a3.1,3.1,0,0,0-3.09-2.79H629.4a3.1,3.1,0,0,0-3.092,2.79l-.658,6.388,2.5-.014.63-6.121a.626.626,0,0,1,.624-.561h20.2a.626.626,0,0,1,.624.563l.638,6.231Z" transform="translate(872.188 352.826)"/><path class="b" d="M653.357,386.127l-.669-6.486a3.1,3.1,0,0,0-3.09-2.79H629.4a3.1,3.1,0,0,0-3.092,2.79l-.658,6.388,2.5-.014.63-6.121a.626.626,0,0,1,.624-.561h20.2a.626.626,0,0,1,.624.563l.638,6.231Z" transform="translate(872.188 352.826)"/><path class="a" d="M637.256,384.06a8.963,8.963,0,1,1,8.962-8.962,8.971,8.971,0,0,1-8.962,8.962m0-15.444a6.481,6.481,0,1,0,6.482,6.482,6.489,6.489,0,0,0-6.482-6.482" transform="translate(874.933 341.698)"/><path class="b" d="M637.256,384.06a8.963,8.963,0,1,1,8.962-8.962A8.971,8.971,0,0,1,637.256,384.06Zm0-15.444a6.481,6.481,0,1,0,6.482,6.482A6.489,6.489,0,0,0,637.256,368.617Z" transform="translate(874.933 341.698)"/><path class="a" d="M668.556,386.127l-.669-6.486a3.1,3.1,0,0,0-3.092-2.79H644.6a3.1,3.1,0,0,0-3.092,2.79l-.659,6.388,2.5-.014.63-6.121a.626.626,0,0,1,.624-.561h20.2a.625.625,0,0,1,.623.563l.64,6.231Z" transform="translate(887.968 352.826)"/><path class="b" d="M668.556,386.127l-.669-6.486a3.1,3.1,0,0,0-3.092-2.79H644.6a3.1,3.1,0,0,0-3.092,2.79l-.659,6.388,2.5-.014.63-6.121a.626.626,0,0,1,.624-.561h20.2a.625.625,0,0,1,.623.563l.64,6.231Z" transform="translate(887.968 352.826)"/><path class="a" d="M652.454,384.06a8.963,8.963,0,1,1,8.964-8.962,8.971,8.971,0,0,1-8.964,8.962m0-15.444a6.481,6.481,0,1,0,6.484,6.482,6.488,6.488,0,0,0-6.484-6.482" transform="translate(890.714 341.698)"/><path class="b" d="M652.454,384.06a8.963,8.963,0,1,1,8.964-8.962A8.971,8.971,0,0,1,652.454,384.06Zm0-15.444a6.481,6.481,0,1,0,6.484,6.482A6.488,6.488,0,0,0,652.454,368.617Z" transform="translate(890.714 341.698)"/><path class="a" d="M683.756,386.127l-.668-6.486a3.1,3.1,0,0,0-3.092-2.79H659.8a3.1,3.1,0,0,0-3.092,2.79l-.656,6.388,2.495-.014.63-6.121a.626.626,0,0,1,.624-.561H680a.626.626,0,0,1,.624.563l.64,6.231Z" transform="translate(903.75 352.826)"/><path class="b" d="M683.756,386.127l-.668-6.486a3.1,3.1,0,0,0-3.092-2.79H659.8a3.1,3.1,0,0,0-3.092,2.79l-.656,6.388,2.495-.014.63-6.121a.626.626,0,0,1,.624-.561H680a.626.626,0,0,1,.624.563l.64,6.231Z" transform="translate(903.75 352.826)"/><path class="a" d="M667.654,384.06a8.963,8.963,0,1,1,8.964-8.962,8.971,8.971,0,0,1-8.964,8.962m0-15.444a6.481,6.481,0,1,0,6.482,6.482,6.49,6.49,0,0,0-6.482-6.482" transform="translate(906.493 341.698)"/><path class="b" d="M667.654,384.06a8.963,8.963,0,1,1,8.964-8.962A8.971,8.971,0,0,1,667.654,384.06Zm0-15.444a6.481,6.481,0,1,0,6.482,6.482A6.49,6.49,0,0,0,667.654,368.617Z" transform="translate(906.493 341.698)"/><path class="a" d="M653.6,368.156l-.668-6.484a3.1,3.1,0,0,0-3.092-2.79h-20.2a3.094,3.094,0,0,0-3.09,2.786l-.658,6.392,2.495-.014.63-6.123a.626.626,0,0,1,.624-.559h20.2a.624.624,0,0,1,.624.559l.64,6.233Z" transform="translate(872.441 334.17)"/><path class="b" d="M653.6,368.156l-.668-6.484a3.1,3.1,0,0,0-3.092-2.79h-20.2a3.094,3.094,0,0,0-3.09,2.786l-.658,6.392,2.495-.014.63-6.123a.626.626,0,0,1,.624-.559h20.2a.624.624,0,0,1,.624.559l.64,6.233Z" transform="translate(872.441 334.17)"/><path class="a" d="M637.5,366.091a8.963,8.963,0,1,1,8.962-8.962,8.973,8.973,0,0,1-8.962,8.962m0-15.444a6.481,6.481,0,1,0,6.482,6.482,6.489,6.489,0,0,0-6.482-6.482" transform="translate(875.185 323.043)"/><path class="b" d="M637.5,366.091a8.963,8.963,0,1,1,8.962-8.962A8.973,8.973,0,0,1,637.5,366.091Zm0-15.444a6.481,6.481,0,1,0,6.482,6.482A6.489,6.489,0,0,0,637.5,350.648Z" transform="translate(875.185 323.043)"/><path class="a" d="M668.8,368.156l-.668-6.484a3.1,3.1,0,0,0-3.094-2.79h-20.2a3.094,3.094,0,0,0-3.09,2.786l-.658,6.392,2.495-.014.632-6.123a.622.622,0,0,1,.622-.559h20.2a.626.626,0,0,1,.626.559l.638,6.233Z" transform="translate(888.222 334.17)"/><path class="b" d="M668.8,368.156l-.668-6.484a3.1,3.1,0,0,0-3.094-2.79h-20.2a3.094,3.094,0,0,0-3.09,2.786l-.658,6.392,2.495-.014.632-6.123a.622.622,0,0,1,.622-.559h20.2a.626.626,0,0,1,.626.559l.638,6.233Z" transform="translate(888.222 334.17)"/><path class="a" d="M652.7,366.091a8.963,8.963,0,1,1,8.962-8.962,8.971,8.971,0,0,1-8.962,8.962m0-15.444a6.481,6.481,0,1,0,6.482,6.482,6.488,6.488,0,0,0-6.482-6.482" transform="translate(890.966 323.043)"/><path class="b" d="M652.7,366.091a8.963,8.963,0,1,1,8.962-8.962A8.971,8.971,0,0,1,652.7,366.091Zm0-15.444a6.481,6.481,0,1,0,6.482,6.482A6.488,6.488,0,0,0,652.7,350.648Z" transform="translate(890.966 323.043)"/><path class="a" d="M684,368.156l-.669-6.484a3.094,3.094,0,0,0-3.092-2.79H660.043a3.1,3.1,0,0,0-3.092,2.786l-.658,6.392,2.5-.014.63-6.123a.624.624,0,0,1,.624-.559h20.195a.624.624,0,0,1,.624.559l.64,6.233Z" transform="translate(904.002 334.17)"/><path class="b" d="M684,368.156l-.669-6.484a3.094,3.094,0,0,0-3.092-2.79H660.043a3.1,3.1,0,0,0-3.092,2.786l-.658,6.392,2.5-.014.63-6.123a.624.624,0,0,1,.624-.559h20.195a.624.624,0,0,1,.624.559l.64,6.233Z" transform="translate(904.002 334.17)"/><path class="a" d="M667.9,366.091a8.963,8.963,0,1,1,8.964-8.962,8.972,8.972,0,0,1-8.964,8.962m0-15.444a6.481,6.481,0,1,0,6.484,6.482,6.487,6.487,0,0,0-6.484-6.482" transform="translate(906.745 323.043)"/><path class="b" d="M667.9,366.091a8.963,8.963,0,1,1,8.964-8.962A8.972,8.972,0,0,1,667.9,366.091Zm0-15.444a6.481,6.481,0,1,0,6.484,6.482A6.487,6.487,0,0,0,667.9,350.648Z" transform="translate(906.745 323.043)"/></g></svg>