<svg xmlns="http://www.w3.org/2000/svg" width="30.457" height="28.554" viewBox="0 0 30.457 28.554"><defs><style>.a{fill:#363636;}</style></defs><g transform="translate(-451.843 -869.2)"><path class="a" d="M192.924,366.38h-.951v5.712h.951a.951.951,0,0,0,.951-.953v-3.807a.953.953,0,0,0-.951-.951" transform="translate(288.425 510.435)"/><path class="a" d="M193.915,361.706H182.493a5.712,5.712,0,0,0-5.71,5.712v17.131a1.9,1.9,0,0,0,1.9,1.9v1.9a1.9,1.9,0,0,0,1.9,1.9h1.9a1.9,1.9,0,0,0,1.9-1.9v-1.9h7.613v1.9a1.9,1.9,0,0,0,1.9,1.9h1.9a1.9,1.9,0,0,0,1.9-1.9v-1.9a1.9,1.9,0,0,0,1.9-1.9V367.418a5.711,5.711,0,0,0-5.709-5.712m-9.518,1.9h7.615v1.9H184.4Zm-3.807,20.938a1.9,1.9,0,1,1,1.9-1.9,1.9,1.9,0,0,1-1.9,1.9m15.228,0a1.9,1.9,0,1,1,1.9-1.9,1.9,1.9,0,0,1-1.9,1.9m1.9-5.71H178.686v-11.42h19.035Z" transform="translate(278.867 507.494)"/><path class="a" d="M174.446,367.331v3.807a.949.949,0,0,0,.951.951h.951v-5.71H175.4a.953.953,0,0,0-.951.951" transform="translate(277.397 510.435)"/></g></svg>