<svg xmlns="http://www.w3.org/2000/svg" width="37.963" height="33.755" viewBox="0 0 37.963 33.755"><defs><style>.a{fill:#009cdc;}</style></defs><g transform="translate(0 0)"><path class="a" d="M188.91,256.522v-2.354h-2.531v2.354a8.389,8.389,0,0,0-7.464,6.647h17.458a8.389,8.389,0,0,0-7.464-6.647" transform="translate(-168.663 -254.168)"/><path class="a" d="M201.582,265.053v-4.5H183.866v4.5H173.742v15.752h7.593v2.25h22.778v-2.25h7.593V265.053Zm-2.531,15.752V269.554H196.52v11.252h-2.531V269.554h-2.531v11.252h-2.531V269.554H186.4v11.252h-2.531V269.554l8.859-6.751,8.857,6.751v11.252Z" transform="translate(-173.742 -249.3)"/></g></svg>