<svg xmlns="http://www.w3.org/2000/svg" xmlns:xlink="http://www.w3.org/1999/xlink" width="47.23" height="47.237" viewBox="0 0 47.23 47.237"><defs><style>.a{fill:#00294b;}.b{clip-path:url(#a);}</style><clipPath id="a"><rect class="a" width="47.23" height="47.237"/></clipPath></defs><g transform="translate(0)"><g class="b" transform="translate(0 0)"><path class="a" d="M190.732,523.944a6.328,6.328,0,1,0,6.337,6.338,6.343,6.343,0,0,0-6.337-6.338" transform="translate(-184.406 -489.363)"/><path class="a" d="M184.709,510.557v8.3A22.762,22.762,0,0,1,207,541.219h8.326a31.107,31.107,0,0,0-30.613-30.663" transform="translate(-184.293 -494.338)"/><path class="a" d="M184.717,498.732v8.3a39.02,39.02,0,0,1,38.494,38.586h8.311a47.331,47.331,0,0,0-46.805-46.883" transform="translate(-184.29 -498.732)"/></g></g></svg>