<svg xmlns="http://www.w3.org/2000/svg" width="58.579" height="46.864" viewBox="0 0 58.579 46.864"><defs><style>.a{fill:#004c46;}</style></defs><path class="a" d="M368.562,518.363l-4.187-4.159c1.055-1.171,3.573-3.485,6.971-3.485a9.342,9.342,0,0,1,5.3,1.963,4.192,4.192,0,0,0,2.02.967c1.084,0,2.344-1.2,2.783-1.787l4.159,4.159c-1.053,1.173-3.573,3.485-6.942,3.485a9.223,9.223,0,0,1-5.242-1.933,4.266,4.266,0,0,0-2.079-1c-1.084,0-2.343,1.2-2.783,1.786m2.783,12.859a4.266,4.266,0,0,1,2.079,1,9.213,9.213,0,0,0,5.242,1.933c3.4,0,5.888-2.313,6.942-3.485l-4.159-4.159c-.439.587-1.728,1.787-2.783,1.787a4.179,4.179,0,0,1-2.02-.967,9.343,9.343,0,0,0-5.3-1.963c-3.4,0-5.916,2.314-6.971,3.487l4.159,4.159c.469-.587,1.728-1.787,2.812-1.787m41.738,14.645H354.5V499h58.579Zm-23.431-41h-29.29V540.01h29.29ZM404.3,534.151a2.928,2.928,0,1,0-2.927,2.93,2.936,2.936,0,0,0,2.927-2.93m0-11.715a2.928,2.928,0,1,0-2.927,2.928,2.937,2.937,0,0,0,2.927-2.928m0-14.646h-5.858v5.858H404.3Z" transform="translate(-354.504 -499.003)"/></svg>