<svg id="Group_11879" data-name="Group 11879" xmlns="http://www.w3.org/2000/svg" xmlns:xlink="http://www.w3.org/1999/xlink" width="84.381" height="102.611" viewBox="0 0 84.381 102.611">
  <defs>
    <clipPath id="clip-path">
      <rect id="Rectangle_5390" data-name="Rectangle 5390" width="84.381" height="102.611" fill="none"/>
    </clipPath>
  </defs>
  <g id="Group_11878" data-name="Group 11878" transform="translate(0 0)" clip-path="url(#clip-path)">
    <path id="Path_8777" data-name="Path 8777" d="M3.621,60.368H0c0-11.781,8.168-13.91,15.376-15.784a45.817,45.817,0,0,0,7.141-2.278l1.489,3.3a48.339,48.339,0,0,1-7.714,2.482c-7.081,1.843-12.671,3.3-12.671,12.279" transform="translate(0 42.243)" fill="#00a199"/>
    <path id="Path_8778" data-name="Path 8778" d="M18.049,44.142l-3.371-1.321a21.913,21.913,0,0,0,1.257-7.906h3.621a25.124,25.124,0,0,1-1.507,9.227" transform="translate(14.656 34.863)" fill="#00a199"/>
    <path id="Path_8779" data-name="Path 8779" d="M25.89,48.528C17.347,45.168,10.824,36.189,8.869,25.09l3.567-.63c1.739,9.867,7.4,17.8,14.777,20.7Z" transform="translate(8.856 24.424)" fill="#00a199"/>
    <path id="Path_8780" data-name="Path 8780" d="M25.489,48.534l-1.323-3.369c7.384-2.9,13.052-10.832,14.791-20.7l3.569.63c-1.959,11.1-8.486,20.089-17.037,23.444" transform="translate(24.13 24.424)" fill="#00a199"/>
    <path id="Path_8781" data-name="Path 8781" d="M58.666,53.3A8.22,8.22,0,0,1,53.9,51.563l-.863-.673,2.312-12.784c-.929-1.765-2.962-6.171-1.737-9.111a34.285,34.285,0,0,0,1.359-4.029,41.254,41.254,0,0,0-19.451-5.384A41.1,41.1,0,0,0,16.07,24.963a33.69,33.69,0,0,0,1.359,4.031c1.223,2.94-.805,7.346-1.737,9.111L18,50.89l-.863.673c-1.523,1.191-4.858,2.71-7.688.883l-.707-.458L6.955,38.026C6.511,31.816,6.005,17,10.65,11.32,16.619,4.019,25.453,0,35.519,0s18.9,4.019,24.869,11.32c4.647,5.68,4.141,20.5,3.705,26.6L62.3,51.989l-.707.458a5.3,5.3,0,0,1-2.922.851m-1.649-4.063a3.625,3.625,0,0,0,1.925.42l1.551-12.091c.815-11.539-.3-20.754-2.906-23.952C52.241,7.077,44.61,3.623,35.519,3.623S18.8,7.077,13.452,13.612c-2.61,3.2-3.719,12.413-2.894,24.054L12.1,49.655a3.607,3.607,0,0,0,1.925-.422L11.9,37.468l.328-.574c1.109-1.939,2.372-5.278,1.863-6.505A39.163,39.163,0,0,1,12.217,24.5l-.27-1.207,1.029-.691A44.321,44.321,0,0,1,35.519,15.96,44.324,44.324,0,0,1,58.064,22.6l1.027.691L58.824,24.5a39.43,39.43,0,0,1-1.871,5.888c-.512,1.233.751,4.569,1.863,6.5l.33.574Z" transform="translate(6.669 0)" fill="#00a199"/>
    <path id="Path_8782" data-name="Path 8782" d="M25.79,48.421c-5.73,0-9.365-8.749-9.365-12.441a4.031,4.031,0,0,1,1.167-3.07c1.395-1.315,3.425-1.2,5.778-1.061a44.477,44.477,0,0,0,4.842,0c2.35-.136,4.385-.254,5.776,1.061a4.024,4.024,0,0,1,1.167,3.07c0,3.691-3.635,12.441-9.365,12.441M20.08,35.545a3.918,3.918,0,0,0-.032.436c0,2.7,2.942,8.819,5.742,8.819s5.744-6.119,5.744-8.819a1.125,1.125,0,0,0-.062-.474,11.055,11.055,0,0,0-3.052-.042,48.105,48.105,0,0,1-5.26,0,9.942,9.942,0,0,0-3.08.08" transform="translate(16.4 31.723)" fill="#00a199"/>
    <path id="Path_8783" data-name="Path 8783" d="M24.925,59.26,10.26,48.4,20.474,38.062l14.137,8.332ZM15.772,47.977l8.42,6.233,5.086-6.755-8.21-4.84Z" transform="translate(10.245 38.005)" fill="#00a199"/>
    <path id="Path_8784" data-name="Path 8784" d="M54.217,60.368H50.6C50.6,51.387,45,49.932,37.925,48.09a48.3,48.3,0,0,1-7.716-2.482l1.489-3.3a45.885,45.885,0,0,0,7.141,2.278c7.209,1.875,15.378,4,15.378,15.784" transform="translate(30.164 42.243)" fill="#00a199"/>
    <path id="Path_8785" data-name="Path 8785" d="M26.609,44.142A25.124,25.124,0,0,1,25.1,34.915h3.621a21.913,21.913,0,0,0,1.257,7.906Z" transform="translate(25.064 34.863)" fill="#00a199"/>
    <path id="Path_8786" data-name="Path 8786" d="M29.464,59.26,19.777,46.394l14.135-8.332L44.129,48.4ZM25.109,47.455,30.2,54.21l8.42-6.233-5.3-5.362Z" transform="translate(19.747 38.005)" fill="#00a199"/>
  </g>
</svg>
