<svg id="Group_11875" data-name="Group 11875" xmlns="http://www.w3.org/2000/svg" xmlns:xlink="http://www.w3.org/1999/xlink" width="84.975" height="100.878" viewBox="0 0 84.975 100.878">
  <defs>
    <clipPath id="clip-path">
      <rect id="Rectangle_5388" data-name="Rectangle 5388" width="84.975" height="100.878" fill="none"/>
    </clipPath>
  </defs>
  <g id="Group_11874" data-name="Group 11874" transform="translate(0 0)" clip-path="url(#clip-path)">
    <path id="Path_8764" data-name="Path 8764" d="M36.086,58.778c-11.417,0-21.189-9.528-24.174-23.356C8.6,34.88,6.118,31.339,6.118,26.913s2.483-7.965,5.8-8.5a33.857,33.857,0,0,1,1.323-4.533l3.4,1.263a30.991,30.991,0,0,0-1.451,5.407l-.312,1.771-1.953-.332c-1.733-.04-3.18,2.291-3.18,4.929S11.171,31.87,12.8,31.87l.28-.056,1.789-.318.314,1.787c2.233,12.674,11.023,21.873,20.9,21.873s18.669-9.2,20.9-21.873L57.3,31.5l2.1.376c1.6,0,3.028-2.319,3.028-4.959S61,21.958,59.37,21.958l-2.071.358-.312-1.771a31.077,31.077,0,0,0-1.247-4.839l3.424-1.191a35.283,35.283,0,0,1,1.093,3.894c3.314.54,5.8,4.082,5.8,8.5s-2.483,7.967-5.795,8.509C57.276,49.25,47.5,58.778,36.086,58.778" transform="translate(6.111 13.859)" fill="#004177"/>
    <path id="Path_8765" data-name="Path 8765" d="M3.622,66.385H0c0-8.819,8.3-12.529,16.326-16.114,8.289-3.7,16.116-7.2,16.116-15.737h3.624c0,10.886-9.7,15.217-18.261,19.043-7.611,3.4-14.184,6.338-14.184,12.808" transform="translate(0 34.493)" fill="#004177"/>
    <path id="Path_8766" data-name="Path 8766" d="M60.245,66.385H56.623c0-6.47-6.572-9.406-14.184-12.808-8.561-3.826-18.261-8.157-18.261-19.043H27.8c0,8.535,7.829,12.033,16.118,15.737,8.027,3.586,16.326,7.3,16.326,16.114" transform="translate(24.149 34.493)" fill="#004177"/>
    <path id="Path_8767" data-name="Path 8767" d="M49.206,56.989H14.658L10.277,42.9l3.462-1.077,3.588,11.545H46.537l3.588-11.545L53.587,42.9Z" transform="translate(10.264 41.773)" fill="#004177"/>
    <path id="Path_8768" data-name="Path 8768" d="M74.643,91.39,73.352,88c6.378-2.433,8.873-6.548,7.44-12.259-3.262,1.453-6.15,1.647-8.607.592-3.768-1.625-5.235-5.617-5.775-7.853-1.023-4.237,1.107-8.1,2.82-11.2.286-.518.566-1.025.822-1.517C75.86,44.6,74.707,36.81,73.78,30.554L73.6,29.341c-.873-6.116-4.993-18.187-14.327-20.1a11.86,11.86,0,0,0-7.38.612l-1.649.646-.682-1.635A14.212,14.212,0,0,0,38.841,3.622c-11.4.046-20.256,6.438-25.675,18.483-1.923,4.271-3.7,9.448-3.7,18.309,0,9.053,2.648,14.789,4.779,19.4,1.511,3.272,2.816,6.1,2.816,9.215a9.292,9.292,0,0,1-3.84,7.945C11.485,78.1,8.509,79,3.8,77.5c.12,5.685,4.881,9.25,7.12,10.612L10.05,89.7,9.1,91.24C6.576,89.7-1.32,84.076.423,74.62l.416-2.249,2.1.921c3.634,1.6,6.506,1.821,8.307.646a5.734,5.734,0,0,0,2.193-4.911c0-2.323-1.093-4.693-2.483-7.693C8.674,56.4,5.84,50.264,5.84,40.414c0-9.544,1.931-15.155,4.022-19.794C15.908,7.182,25.908.05,38.777,0A17.889,17.889,0,0,1,51.895,6.008,15.467,15.467,0,0,1,60,5.689C74.14,8.589,77.07,28,77.188,28.827l.174,1.193c.953,6.418,2.255,15.207-4.1,27.418-.27.52-.564,1.053-.865,1.6-1.553,2.814-3.16,5.727-2.469,8.6.306,1.269,1.281,4.335,3.69,5.373,1.841.8,4.313.318,7.35-1.417l1.841-1.051.752,1.983c3.256,8.585.006,15.463-8.921,18.867" transform="translate(0.174 0)" fill="#004177"/>
    <path id="Path_8769" data-name="Path 8769" d="M59.256,23.731c-7.983,0-15.077-3.666-18.141-9.073-5.873,5.389-18.275,9.592-33.482,8.2l.332-3.612c15.193,1.4,28.321-3.456,32.243-8.959l2.215-3.11,1.007,3.684c1.449,5.291,8.241,9.252,15.831,9.252H59.4l.022,3.622Z" transform="translate(7.624 7.165)" fill="#004177"/>
  </g>
</svg>
