<svg id="Group_11877" data-name="Group 11877" xmlns="http://www.w3.org/2000/svg" xmlns:xlink="http://www.w3.org/1999/xlink" width="88.483" height="100.878" viewBox="0 0 88.483 100.878">
  <defs>
    <clipPath id="clip-path">
      <rect id="Rectangle_5389" data-name="Rectangle 5389" width="88.483" height="100.878" fill="none"/>
    </clipPath>
  </defs>
  <g id="Group_11876" data-name="Group 11876" transform="translate(0 0)" clip-path="url(#clip-path)">
    <path id="Path_8770" data-name="Path 8770" d="M3.8,67.72H0C0,55.367,8.569,53.135,16.126,51.167c8.561-2.228,15.952-4.154,15.952-17.876h3.8c0,16.661-10.419,19.373-18.792,21.553C9.661,56.778,3.8,58.3,3.8,67.72" transform="translate(0 33.158)" fill="#008dd6"/>
    <path id="Path_8771" data-name="Path 8771" d="M62.232,67.72h-3.8c0-9.419-5.862-10.942-13.285-12.876-8.371-2.18-18.792-4.892-18.792-21.553h3.8c0,13.723,7.391,15.649,15.952,17.876,7.559,1.968,16.126,4.2,16.126,16.553" transform="translate(26.251 33.158)" fill="#008dd6"/>
    <path id="Path_8772" data-name="Path 8772" d="M31.344,54.986,12.764,43.695l1.972-3.246L31.344,50.541,47.953,40.449l1.972,3.246Z" transform="translate(12.712 40.287)" fill="#008dd6"/>
    <path id="Path_8773" data-name="Path 8773" d="M62.272,31.092,58.5,30.615l1.068-8.407c.068-.381,1.108-6.463-5.97-12.3-8.972-7.4-18.738-5.922-25.868-4.834a41.792,41.792,0,0,1-5.92.639,30.49,30.49,0,0,1-8.443-1.2,12.919,12.919,0,0,0-1.647,6.968,32.228,32.228,0,0,0,1.132,6.848,47.269,47.269,0,0,1,1.619,12.521h-3.8A43.461,43.461,0,0,0,9.164,19.225a35.726,35.726,0,0,1-1.238-7.593A16.007,16.007,0,0,1,11.18,1.022L12.066,0,13.32.5a25.565,25.565,0,0,0,8.493,1.409,39.418,39.418,0,0,0,5.349-.6C34.555.19,45.735-1.507,56.016,6.976c8.92,7.355,7.369,15.507,7.3,15.852Z" transform="translate(7.882 0)" fill="#008dd6"/>
    <path id="Path_8774" data-name="Path 8774" d="M37.843,63.132c-11.968,0-22.214-9.988-25.345-24.489-3.473-.569-6.074-4.281-6.074-8.918s2.6-8.353,6.076-8.92A37.4,37.4,0,0,1,16.741,9.779l.942-1.611,1.629.916c4.429,2.5,10.5,2.477,17.509,2.481h2.044c7.034.01,13.08.014,17.507-2.481L58,8.168l.946,1.611A37.4,37.4,0,0,1,63.188,20.8c3.473.567,6.076,4.283,6.076,8.92s-2.6,8.349-6.076,8.918c-3.13,14.5-13.375,24.489-25.345,24.489M15.6,34.545l.327,1.858c2.343,13.289,11.559,22.93,21.914,22.93S57.416,49.693,59.759,36.4l.327-1.858,2.05.351c1.844,0,3.329-2.417,3.329-5.172s-1.5-5.2-3.212-5.2l-.291.058-1.872.335-.331-1.874a34.58,34.58,0,0,0-3.246-9.806c-5.02,2.134-11.172,2.128-17.651,2.124h-2.04c-6.483-.006-12.631.01-17.651-2.124a34.577,34.577,0,0,0-3.244,9.806L15.6,24.92l-2.2-.4c-1.673,0-3.174,2.431-3.174,5.2s1.5,5.2,3.212,5.2Z" transform="translate(6.398 8.135)" fill="#008dd6"/>
    <path id="Path_8775" data-name="Path 8775" d="M20.114,32.064a18.287,18.287,0,0,1-5.635-.93l1.2-3.6c1.687.559,5.994,1.617,9.539-.655a8.413,8.413,0,0,0,1.87-1.639L29.972,27.7a12.261,12.261,0,0,1-2.707,2.371,13.08,13.08,0,0,1-7.152,1.992" transform="translate(14.421 25.135)" fill="#008dd6"/>
    <path id="Path_8776" data-name="Path 8776" d="M31.762,32.064a13.074,13.074,0,0,1-7.15-1.992A12.271,12.271,0,0,1,21.9,27.7l2.888-2.465a8.467,8.467,0,0,0,1.872,1.639c3.541,2.271,7.848,1.214,9.539.655l1.2,3.6a18.3,18.3,0,0,1-5.637.93" transform="translate(21.816 25.135)" fill="#008dd6"/>
  </g>
</svg>
