<svg id="Group_11883" data-name="Group 11883" xmlns="http://www.w3.org/2000/svg" xmlns:xlink="http://www.w3.org/1999/xlink" width="90.927" height="104.443" viewBox="0 0 90.927 104.443">
  <defs>
    <clipPath id="clip-path">
      <rect id="Rectangle_5392" data-name="Rectangle 5392" width="90.927" height="104.443" fill="none"/>
    </clipPath>
  </defs>
  <g id="Group_11882" data-name="Group 11882" transform="translate(0 0)" clip-path="url(#clip-path)">
    <path id="Path_8792" data-name="Path 8792" d="M16.761,57.523c-5.267,0-9.773-4.395-11.152-10.774C4.08,46.5,2.937,44.866,2.937,42.824S4.082,39.149,5.611,38.9a15.528,15.528,0,0,1,.611-2.092l1.567.584a14,14,0,0,0-.668,2.493l-.146.816-.9-.154c-.8-.017-1.466,1.058-1.466,2.274s.659,2.288,1.412,2.288l.129-.027.824-.146.148.824c1.028,5.847,5.084,10.09,9.64,10.09s8.613-4.243,9.642-10.09l.144-.824.97.175c.738,0,1.4-1.07,1.4-2.29s-.659-2.286-1.412-2.286l-.955.165-.144-.816a14.331,14.331,0,0,0-.576-2.232l1.579-.549a16.024,16.024,0,0,1,.505,1.8c1.529.248,2.674,1.882,2.674,3.922S29.442,46.5,27.913,46.75c-1.379,6.379-5.885,10.774-11.152,10.774" transform="translate(2.704 33.893)" fill="#433732"/>
    <path id="Path_8793" data-name="Path 8793" d="M1.671,61.419H0c0-4.068,3.83-5.78,7.531-7.433,3.824-1.708,7.433-3.323,7.433-7.259h1.671c0,5.019-4.473,7.018-8.424,8.784-3.507,1.569-6.54,2.923-6.54,5.908" transform="translate(0 43.024)" fill="#433732"/>
    <path id="Path_8794" data-name="Path 8794" d="M28.243,61.419H26.572c0-2.985-3.033-4.339-6.542-5.908-3.949-1.765-8.423-3.765-8.423-8.784h1.671c0,3.936,3.609,5.551,7.433,7.259,3.7,1.654,7.531,3.365,7.531,7.433" transform="translate(10.687 43.024)" fill="#433732"/>
    <path id="Path_8795" data-name="Path 8795" d="M22.891,57.221H6.954l-2.021-6.5,1.6-.5L8.185,55.55H21.659l1.656-5.324,1.6.5Z" transform="translate(4.543 46.245)" fill="#433732"/>
    <path id="Path_8796" data-name="Path 8796" d="M34.437,72.307l-.6-1.562c2.943-1.122,4.093-3.021,3.43-5.655a4.848,4.848,0,0,1-3.968.273,5.13,5.13,0,0,1-2.664-3.623c-.473-1.955.511-3.736,1.3-5.167.129-.238.259-.473.376-.7a16.838,16.838,0,0,0,1.719-11.632l-.079-.557c-.4-2.822-2.3-8.39-6.609-9.275a5.483,5.483,0,0,0-3.405.282l-.761.3-.313-.753a6.561,6.561,0,0,0-4.946-2.416c-5.257.021-9.346,2.969-11.847,8.524a18.936,18.936,0,0,0-1.708,8.447,19.445,19.445,0,0,0,2.209,8.949,10.308,10.308,0,0,1,1.3,4.251A4.282,4.282,0,0,1,6.1,65.655a4.9,4.9,0,0,1-4.345.242c.058,2.622,2.253,4.266,3.284,4.9l-.4.732-.442.713c-1.162-.709-4.8-3.3-4-7.666L.39,63.535l.968.424c1.673.736,3,.839,3.83.3A2.642,2.642,0,0,0,6.2,61.992a9.039,9.039,0,0,0-1.145-3.551A20.907,20.907,0,0,1,2.7,48.793,20.476,20.476,0,0,1,4.554,39.66c2.789-6.2,7.4-9.487,13.336-9.51a8.252,8.252,0,0,1,6.052,2.772,7.116,7.116,0,0,1,3.74-.146c6.521,1.335,7.873,10.291,7.927,10.672l.083.551A18.518,18.518,0,0,1,33.8,56.645c-.123.24-.259.486-.4.736-.72,1.3-1.462,2.643-1.141,3.968a3.619,3.619,0,0,0,1.7,2.48c.851.367,1.99.146,3.392-.655l.851-.486.344.916c1.5,3.961,0,7.134-4.112,8.7" transform="translate(0.077 27.76)" fill="#433732"/>
    <path id="Path_8797" data-name="Path 8797" d="M27.478,41.23c-3.682,0-6.955-1.692-8.367-4.183C16.4,39.532,10.679,41.47,3.664,40.825l.154-1.663c7.007.642,13.063-1.6,14.872-4.135l1.022-1.433.465,1.7c.667,2.441,3.8,4.268,7.3,4.268h.065l.012,1.671Z" transform="translate(3.374 30.93)" fill="#433732"/>
    <path id="Path_8798" data-name="Path 8798" d="M28.212,61.722H26.5c0-5.589,3.876-6.6,7.3-7.489,3.874-1.01,7.218-1.88,7.218-8.09h1.719c0,7.537-4.715,8.766-8.5,9.754-3.359.874-6.012,1.565-6.012,5.826" transform="translate(24.395 42.486)" fill="#433732"/>
    <path id="Path_8799" data-name="Path 8799" d="M55.121,61.722H53.4c0-4.26-2.653-4.952-6.012-5.826-3.79-.987-8.505-2.217-8.505-9.754h1.719c0,6.21,3.344,7.08,7.218,8.09,3.421.891,7.3,1.9,7.3,7.489" transform="translate(35.805 42.486)" fill="#433732"/>
    <path id="Path_8800" data-name="Path 8800" d="M40.9,56.087,32.5,50.976l.893-1.467L40.9,54.076l7.514-4.568.893,1.467Z" transform="translate(29.921 45.585)" fill="#433732"/>
    <path id="Path_8801" data-name="Path 8801" d="M54.812,44.558l-1.706-.215.484-3.805c.031-.173.5-2.925-2.7-5.566-4.06-3.35-8.478-2.679-11.705-2.188a18.9,18.9,0,0,1-2.678.29,13.82,13.82,0,0,1-3.82-.542,5.828,5.828,0,0,0-.745,3.152,14.521,14.521,0,0,0,.511,3.1,21.385,21.385,0,0,1,.734,5.668H31.464a19.7,19.7,0,0,0-.682-5.263,16.113,16.113,0,0,1-.561-3.434,7.242,7.242,0,0,1,1.473-4.8l.4-.463.569.229a11.578,11.578,0,0,0,3.843.638,18.116,18.116,0,0,0,2.42-.271c3.346-.509,8.4-1.277,13.057,2.56,4.035,3.331,3.334,7.018,3.3,7.174Z" transform="translate(27.82 28.072)" fill="#433732"/>
    <path id="Path_8802" data-name="Path 8802" d="M43.732,59.2c-5.417,0-10.053-4.521-11.469-11.081-1.573-.259-2.749-1.938-2.749-4.035s1.176-3.782,2.749-4.037a16.992,16.992,0,0,1,1.919-4.988l.426-.73.738.415c2,1.127,4.752,1.122,7.923,1.122H44.2c3.183,0,5.918.006,7.921-1.122l.736-.415.428.73A16.834,16.834,0,0,1,55.2,40.048c1.573.255,2.751,1.938,2.751,4.037s-1.177,3.776-2.751,4.035C53.786,54.68,49.149,59.2,43.732,59.2M33.668,46.266l.148.841c1.06,6.014,5.23,10.376,9.917,10.376s8.857-4.362,9.915-10.376l.15-.841.926.157c.836,0,1.508-1.093,1.508-2.338s-.678-2.353-1.452-2.353l-.134.027-.847.152-.15-.849a15.557,15.557,0,0,0-1.467-4.437c-2.27.966-5.054.962-7.987.96H43.27c-2.933,0-5.716.006-7.986-.96a15.677,15.677,0,0,0-1.467,4.437l-.15.849-1-.181c-.757,0-1.437,1.1-1.437,2.355s.68,2.351,1.454,2.351Z" transform="translate(27.176 31.609)" fill="#433732"/>
    <path id="Path_8803" data-name="Path 8803" d="M35.853,45.445a8.343,8.343,0,0,1-2.551-.421l.542-1.631a5.231,5.231,0,0,0,4.318-.3,3.959,3.959,0,0,0,.845-.741l1.308,1.114a5.652,5.652,0,0,1-1.225,1.074,5.924,5.924,0,0,1-3.236.9" transform="translate(30.663 38.999)" fill="#433732"/>
    <path id="Path_8804" data-name="Path 8804" d="M41.255,45.445a5.924,5.924,0,0,1-3.236-.9,5.652,5.652,0,0,1-1.225-1.074L38.1,42.356a3.923,3.923,0,0,0,.847.741,5.227,5.227,0,0,0,4.316.3l.542,1.631a8.332,8.332,0,0,1-2.551.421" transform="translate(33.877 38.999)" fill="#433732"/>
    <path id="Path_8805" data-name="Path 8805" d="M2.284,28.642H.613c0-5.436,3.769-6.417,7.1-7.284A21.064,21.064,0,0,0,11,20.308l.686,1.523a22.252,22.252,0,0,1-3.559,1.145c-3.265.853-5.845,1.523-5.845,5.666" transform="translate(0.564 18.698)" fill="#433732"/>
    <path id="Path_8806" data-name="Path 8806" d="M9.215,21.017l-1.556-.609a10.133,10.133,0,0,0,.58-3.649H9.91a11.569,11.569,0,0,1-.7,4.258" transform="translate(7.052 15.431)" fill="#433732"/>
    <path id="Path_8807" data-name="Path 8807" d="M12.725,22.846C8.782,21.3,5.776,17.153,4.871,12.032l1.648-.29c.8,4.552,3.413,8.211,6.817,9.55Z" transform="translate(4.485 10.811)" fill="#433732"/>
    <path id="Path_8808" data-name="Path 8808" d="M12.825,22.848l-.611-1.556c3.407-1.337,6.022-5,6.824-9.55l1.646.29c-.9,5.123-3.915,9.268-7.86,10.816" transform="translate(11.246 10.811)" fill="#433732"/>
    <path id="Path_8809" data-name="Path 8809" d="M27.8,24.589a3.8,3.8,0,0,1-2.2-.8l-.4-.309,1.066-5.9c-.428-.812-1.366-2.847-.8-4.2a15.672,15.672,0,0,0,.626-1.859,19.024,19.024,0,0,0-8.974-2.484,18.963,18.963,0,0,0-8.974,2.484,16.087,16.087,0,0,0,.628,1.859c.565,1.356-.373,3.39-.8,4.2l1.066,5.9-.4.309A3.172,3.172,0,0,1,5.1,24.2l-.327-.209-.824-6.444c-.206-2.864-.44-9.7,1.7-12.32A14.474,14.474,0,0,1,17.125,0,14.478,14.478,0,0,1,28.6,5.223c2.144,2.62,1.909,9.456,1.709,12.272l-.83,6.492-.327.209a2.426,2.426,0,0,1-1.348.394m-.761-1.875a1.68,1.68,0,0,0,.887.194l.716-5.578c.375-5.324-.136-9.577-1.341-11.05a12.672,12.672,0,0,0-10.182-4.61,12.671,12.671,0,0,0-10.18,4.61c-1.2,1.473-1.715,5.726-1.335,11.1l.711,5.53a1.684,1.684,0,0,0,.887-.194l-.982-5.428.152-.265c.511-.9,1.095-2.436.859-3A18.168,18.168,0,0,1,6.374,11.3l-.123-.557.474-.319a20.432,20.432,0,0,1,10.4-3.066,20.435,20.435,0,0,1,10.4,3.066l.474.319-.123.557a18.168,18.168,0,0,1-.862,2.718c-.238.569.346,2.107.859,3l.152.265Z" transform="translate(3.518 0)" fill="#433732"/>
    <path id="Path_8810" data-name="Path 8810" d="M12.818,22.933c-2.643,0-4.32-4.037-4.32-5.741a1.854,1.854,0,0,1,.54-1.416c.642-.607,1.579-.553,2.664-.49a19.7,19.7,0,0,0,2.234,0c1.085-.063,2.023-.117,2.664.49a1.854,1.854,0,0,1,.54,1.416c0,1.7-1.677,5.741-4.322,5.741m-2.633-5.941a1.7,1.7,0,0,0-.015.2c0,1.247,1.358,4.07,2.649,4.07s2.651-2.824,2.651-4.07a.492.492,0,0,0-.029-.217,5.157,5.157,0,0,0-1.406-.019,22.256,22.256,0,0,1-2.428,0,4.566,4.566,0,0,0-1.421.036" transform="translate(7.825 14.041)" fill="#433732"/>
    <path id="Path_8811" data-name="Path 8811" d="M12.3,28.048,5.538,23.04l4.714-4.769,6.525,3.842Zm-4.222-5.2,3.884,2.875L14.312,22.6,10.524,20.37Z" transform="translate(5.099 16.823)" fill="#433732"/>
    <path id="Path_8812" data-name="Path 8812" d="M26.192,28.642H24.521c0-4.143-2.58-4.813-5.845-5.666a22.274,22.274,0,0,1-3.561-1.145l.688-1.523A21.064,21.064,0,0,0,19.1,21.359c3.325.866,7.1,1.848,7.1,7.284" transform="translate(13.917 18.698)" fill="#433732"/>
    <path id="Path_8813" data-name="Path 8813" d="M13.358,21.017a11.569,11.569,0,0,1-.7-4.258h1.671a10.133,10.133,0,0,0,.58,3.649Z" transform="translate(11.66 15.431)" fill="#433732"/>
    <path id="Path_8814" data-name="Path 8814" d="M14.576,28.051l-4.468-5.937,6.521-3.843,4.714,4.771ZM12.567,22.6l2.347,3.117L18.8,22.844,16.356,20.37Z" transform="translate(9.307 16.823)" fill="#433732"/>
    <path id="Path_8815" data-name="Path 8815" d="M28.453,31.69H26.782c0-4.07,3.828-5.78,7.531-7.433,3.822-1.708,7.433-3.321,7.433-7.259h1.671c0,5.019-4.473,7.018-8.424,8.784-3.507,1.569-6.54,2.923-6.54,5.908" transform="translate(24.66 15.651)" fill="#433732"/>
    <path id="Path_8816" data-name="Path 8816" d="M55.025,31.69H53.354c0-2.985-3.033-4.339-6.542-5.908-3.949-1.765-8.423-3.765-8.423-8.784H40.06c0,3.938,3.611,5.551,7.433,7.259,3.7,1.654,7.531,3.363,7.531,7.433" transform="translate(35.347 15.651)" fill="#433732"/>
    <path id="Path_8817" data-name="Path 8817" d="M52.587,26.535H34.443a4.161,4.161,0,0,1-3.826-2.52l-.866-2.023,1.535-.661.868,2.023a2.486,2.486,0,0,0,2.29,1.51H52.587a2.488,2.488,0,0,0,2.29-1.51l.866-2.023,1.537.661-.868,2.023a4.158,4.158,0,0,1-3.824,2.52" transform="translate(27.393 19.641)" fill="#433732"/>
    <path id="Path_8818" data-name="Path 8818" d="M35.944,35.422a2.556,2.556,0,0,1-1.5-.716c-2.641-2.136-7.965-9.684-6.584-18.193C29.154,8.545,36.455.161,45.247.3c4.681.092,9.1,2.593,12.443,7.043,3.876,5.159,5.436,12.009,3.972,17.446a18.275,18.275,0,0,1-7.691,10.124l-.937-1.383a16.633,16.633,0,0,0,7.015-9.175c1.335-4.959-.115-11.244-3.694-16.009-3.027-4.03-6.984-6.294-11.14-6.375-7.9-.142-14.521,7.531-15.7,14.809-1.227,7.558,3.281,14.135,5.538,16.269q-.049-.179-.1-.346c-.722-2.532-2.065-7.245-.044-11.334a19.015,19.015,0,0,1,5.678-6.406c2.387-1.936,4.274-3.467,4.5-6.536l1.667.123c-.28,3.792-2.63,5.7-5.117,7.712a17.426,17.426,0,0,0-5.23,5.847c-1.734,3.511-.551,7.66.154,10.136.467,1.636.774,2.716-.217,3.1a1.123,1.123,0,0,1-.4.075" transform="translate(25.447 0.275)" fill="#433732"/>
    <path id="Path_8819" data-name="Path 8819" d="M42.262,29.388c-5.19,0-9.775-4.433-11.152-10.779l1.633-.353c1.208,5.572,5.123,9.462,9.519,9.462,4.556,0,8.613-4.243,9.64-10.088l.148-.822.968.169c.738,0,1.4-1.068,1.4-2.288S53.756,12.4,53,12.4l-.3.054-.163-.036a9.676,9.676,0,0,1-4.89-2.758,9.682,9.682,0,0,1-2.226-3.826l1.6-.486a7.9,7.9,0,0,0,5.728,5.4A1.709,1.709,0,0,1,53,10.732c1.729,0,3.083,1.738,3.083,3.957,0,2.042-1.143,3.674-2.672,3.926-1.379,6.379-5.885,10.774-11.152,10.774" transform="translate(28.645 4.926)" fill="#433732"/>
  </g>
</svg>
