<svg id="Group_11881" data-name="Group 11881" xmlns="http://www.w3.org/2000/svg" xmlns:xlink="http://www.w3.org/1999/xlink" width="83.975" height="100.878" viewBox="0 0 83.975 100.878">
  <defs>
    <clipPath id="clip-path">
      <rect id="Rectangle_5391" data-name="Rectangle 5391" width="83.975" height="100.878" fill="none"/>
    </clipPath>
  </defs>
  <g id="Group_11880" data-name="Group 11880" transform="translate(0 0)" clip-path="url(#clip-path)">
    <path id="Path_8787" data-name="Path 8787" d="M0,66.479C0,57.7,8.258,54.013,16.245,50.444c8.246-3.685,16.036-7.166,16.036-15.658h3.606c0,10.829-9.656,15.141-18.172,18.948C10.143,57.117,3.6,60.039,3.6,66.479" transform="translate(0 34.4)" fill="#9f1360"/>
    <line id="Line_2415" data-name="Line 2415" x1="3.604" transform="translate(0 100.878)" fill="#9f1360"/>
    <path id="Path_8788" data-name="Path 8788" d="M60.065,66.479h-3.6c0-6.44-6.539-9.362-14.113-12.745-8.516-3.807-18.17-8.119-18.17-18.948h3.6c0,8.493,7.792,11.973,16.038,15.658,7.987,3.568,16.245,7.257,16.245,16.034" transform="translate(23.909 34.4)" fill="#9f1360"/>
    <path id="Path_8789" data-name="Path 8789" d="M55.443,55.039H16.3A8.968,8.968,0,0,1,8.054,49.6L6.182,45.24l3.311-1.422,1.874,4.362A5.362,5.362,0,0,0,16.3,51.435H55.443a5.363,5.363,0,0,0,4.936-3.254l1.874-4.364,3.312,1.422L63.693,49.6a8.966,8.966,0,0,1-8.25,5.438" transform="translate(6.113 43.332)" fill="#9f1360"/>
    <path id="Path_8790" data-name="Path 8790" d="M19.7,75.762a5.507,5.507,0,0,1-3.234-1.545c-5.7-4.608-17.18-20.885-14.2-39.245C5.054,17.786,20.8-.3,39.766,0,49.866.2,59.4,5.6,66.608,15.195c8.359,11.132,11.72,25.905,8.566,37.636-2.888,10.734-10.617,17.8-16.591,21.842l-2.019-2.989c5.467-3.693,12.53-10.127,15.129-19.791,2.878-10.7-.249-24.252-7.967-34.529-6.531-8.7-15.064-13.58-24.032-13.755C22.646,3.3,8.372,19.855,5.824,35.549,3.177,51.858,12.9,66.041,17.769,70.643c-.07-.253-.141-.5-.211-.744-1.555-5.463-4.453-15.627-.1-24.447,3.2-6.484,8.009-10.38,12.248-13.819,5.151-4.177,9.218-7.476,9.71-14.1l3.6.267c-.607,8.174-5.672,12.283-11.036,16.633-4.145,3.361-8.431,6.836-11.285,12.613-3.741,7.574-1.191,16.52.332,21.864,1.006,3.528,1.669,5.859-.467,6.689a2.3,2.3,0,0,1-.859.163" transform="translate(1.76 0.001)" fill="#9f1360"/>
    <path id="Path_8791" data-name="Path 8791" d="M33.072,62.374c-11.193,0-21.086-9.561-24.056-23.252l3.522-.764C15.144,50.375,23.589,58.77,33.072,58.77c9.829,0,18.576-9.153,20.8-21.764l.312-1.77,2.092.366c1.589,0,3.013-2.307,3.013-4.934s-1.424-4.932-3.047-4.932l-.64.119-.352-.08A20.857,20.857,0,0,1,44.7,19.826a20.844,20.844,0,0,1-4.8-8.256l3.447-1.05a17.245,17.245,0,0,0,3.966,6.822A17.247,17.247,0,0,0,55.7,22.177a3.82,3.82,0,0,1,.543-.046c3.729,0,6.651,3.749,6.651,8.536,0,4.4-2.47,7.928-5.766,8.467-2.969,13.759-12.693,23.24-24.054,23.24" transform="translate(8.916 10.404)" fill="#9f1360"/>
  </g>
</svg>
