<svg xmlns="http://www.w3.org/2000/svg" width="94.866" height="95.3" viewBox="0 0 94.866 95.3">
  <g id="icon_gears_24px" transform="translate(-1.1 -1)">
    <path id="Path_5320" data-name="Path 5320" d="M19.961,35.023A15.348,15.348,0,0,1,4.8,19.861,15.348,15.348,0,0,1,19.961,4.7,15.348,15.348,0,0,1,35.123,19.861,15.348,15.348,0,0,1,19.961,35.023Zm0-27.29A12.108,12.108,0,0,0,7.832,19.861,12.4,12.4,0,0,0,19.961,31.99a12.129,12.129,0,0,0,0-24.258Z" transform="translate(12.328 12.328)" fill="#b42672"/>
    <path id="Path_5321" data-name="Path 5321" d="M37.487,63.811l-1.3-3.9a21.027,21.027,0,0,1-7.364,0l-1.3,3.9-1.3-.433a28.574,28.574,0,0,1-11.263-4.765l-.866-.866,1.733-3.9a11.022,11.022,0,0,1-5.2-4.765l-3.9,1.733-.866-.866A32.766,32.766,0,0,1,1.1,38.687v-1.3l3.9-1.3V28.724l-3.9-1.3.433-1.3A35.726,35.726,0,0,1,5.865,14.862L6.731,14l3.9,1.733a14.932,14.932,0,0,1,5.2-5.2L14.1,6.631l.866-.866A32.766,32.766,0,0,1,26.224,1h.866l1.3,3.9a21.027,21.027,0,0,1,7.364,0L37.487,1l1.3.433A28.574,28.574,0,0,1,50.049,6.2l.866.866-1.733,3.9a29.406,29.406,0,0,1,5.2,5.2L58.28,14l.866.866a32.767,32.767,0,0,1,4.765,11.263l.433,1.3-3.9,1.3c0,1.3.433,2.6.433,3.465a8.445,8.445,0,0,1-.433,3.465l3.9,1.3-.433,1.3a28.574,28.574,0,0,1-4.765,11.263l-.866.866-3.9-1.733a29.406,29.406,0,0,1-5.2,5.2l1.733,3.9-.866.866a32.766,32.766,0,0,1-11.263,4.765ZM17.561,56.88a29.023,29.023,0,0,0,7.8,3.032l1.3-3.9h1.3a29.041,29.041,0,0,0,8.664,0h1.3l1.3,3.9a57.851,57.851,0,0,0,7.8-3.032l-1.733-3.9.866-.866a26.836,26.836,0,0,0,6.065-6.065l.866-.866,3.9,1.733a29.023,29.023,0,0,0,3.032-7.8l-3.9-1.3v-1.3c.866-1.3.866-2.6.866-4.332a14.736,14.736,0,0,0-.433-4.332v-1.3l3.9-1.3a30.774,30.774,0,0,0-3.465-7.8l-3.9,1.733-.433-.866a26.836,26.836,0,0,0-6.065-6.065l-.866-.866L47.45,7.5a46.187,46.187,0,0,0-8.23-3.032l-1.3,3.9h-1.3a29.041,29.041,0,0,0-8.664,0h-1.3l-1.3-3.9a30.774,30.774,0,0,0-7.8,3.465l1.733,3.9-.866.433c-2.6,1.733-4.765,3.465-6.065,6.065l-.866.866L7.6,17.461a29.023,29.023,0,0,0-3.032,7.8l3.9,1.733v1.3a16.25,16.25,0,0,0-.433,4.332,16.25,16.25,0,0,0,.433,4.332v1.3l-3.9,1.3A57.852,57.852,0,0,0,7.6,47.35l3.9-1.733.866.866a26.836,26.836,0,0,0,6.065,6.065l.866.866Z" transform="translate(0 0)" fill="#762157"/>
    <path id="Path_5322" data-name="Path 5322" d="M25.277,35.14a5.494,5.494,0,0,1-2.6-.433c-2.6-.866-4.765-2.166-6.065-4.765a8.734,8.734,0,0,1-.866-7.364c.866-2.6,2.166-4.765,4.765-6.065a8.734,8.734,0,0,1,7.364-.866c2.6.866,4.765,2.166,6.065,4.765a8.734,8.734,0,0,1,.866,7.364h0c-.866,2.6-2.166,4.765-4.765,6.065A8.732,8.732,0,0,1,25.277,35.14Zm0-16.894a8.161,8.161,0,0,0-3.465.866c-1.733.866-2.6,2.6-3.465,4.332a5.729,5.729,0,0,0,.866,5.2,11,11,0,0,0,4.332,3.465c1.733.433,3.9.433,5.2-.866,1.733-.866,2.6-2.6,3.465-4.332h0c.433-1.733.433-3.9-.866-5.2-.866-1.733-2.6-2.6-4.332-3.465Z" transform="translate(47.298 47.298)" fill="#b42672"/>
    <path id="Path_5323" data-name="Path 5323" d="M35.925,59.65h-2.6l-.433-3.032a18.761,18.761,0,0,1-2.166-.433,14.24,14.24,0,0,1-2.6-1.3l-1.733,2.6-1.3-.433a17.385,17.385,0,0,1-6.931-5.631l-.866-.866,2.166-2.6a38.1,38.1,0,0,1-2.6-4.332l-3.032.433-.433-1.3a30.016,30.016,0,0,1-1.3-8.664v-1.3l3.032-.433a18.761,18.761,0,0,1,.433-2.166c0-.866.433-1.3.866-2.166l-2.6-1.733.433-1.3A17.385,17.385,0,0,1,19.9,18.065l.866-.866,2.6,2.166a38.094,38.094,0,0,1,4.332-2.6l-.433-3.032,1.3-.433A30.016,30.016,0,0,1,37.224,12h1.3l.433,3.032a18.761,18.761,0,0,1,2.166.433,3.309,3.309,0,0,1,2.166.866l1.733-2.6,1.3.433A17.385,17.385,0,0,1,53.252,19.8l.866.866-2.166,2.6a38.093,38.093,0,0,1,2.6,4.332l3.032-.433.433,1.3a30.016,30.016,0,0,1,1.3,8.664v1.3l-3.032.433a18.761,18.761,0,0,1-.433,2.166c0,.866-.433,1.3-.866,2.166l2.6,1.733-.866,1.733a17.385,17.385,0,0,1-5.631,6.931l-.433.866-2.6-2.166a38.092,38.092,0,0,1-4.332,2.6l.433,3.032-1.3.433A17.958,17.958,0,0,1,35.925,59.65Zm0-3.032a21.743,21.743,0,0,0,5.2-.866l-.433-3.032,1.3-.433a14.979,14.979,0,0,0,5.2-3.032l.866-.866L50.22,50.12a16.961,16.961,0,0,0,3.465-4.332l-2.6-1.733.433-1.3c.433-.866.866-2.166,1.3-3.032h0a6.423,6.423,0,0,0,.433-3.032v-1.3l3.032-.433a21.743,21.743,0,0,0-.866-5.2l-3.032.433-.433-1.3a14.979,14.979,0,0,0-3.032-5.2l-.866-.866,1.733-2.166A16.961,16.961,0,0,0,45.455,17.2l-.866,3.465-1.3-.433c-.866-.433-2.166-.866-3.032-1.3a7.372,7.372,0,0,0-3.032-.433h-1.3l-.433-3.032a21.743,21.743,0,0,0-5.2.866l.433,3.032-1.3.433a14.979,14.979,0,0,0-5.2,3.032l-.866.866L21.2,21.963a16.96,16.96,0,0,0-3.465,4.332l2.6,1.733-.433,1.3c-.433.866-.866,2.166-1.3,3.032a6.423,6.423,0,0,0-.433,3.032v1.3l-3.032.433a21.743,21.743,0,0,0,.866,5.2l3.032-.433.433,1.3a14.979,14.979,0,0,0,3.032,5.2l.866.866L21.63,51.419a16.96,16.96,0,0,0,4.332,3.465l1.733-2.6,1.3.433c.866.433,2.166.866,3.032,1.3a7.372,7.372,0,0,0,3.032.433h1.3Z" transform="translate(36.65 36.65)" fill="#762157"/>
  </g>
</svg>
