<svg xmlns="http://www.w3.org/2000/svg" width="97.715" height="99.475" viewBox="0 0 97.715 99.475">
  <g id="icon_stethoscope_24px" transform="translate(-1 -0.8)">
    <g id="Group_10909" data-name="Group 10909" transform="translate(1 0.8)">
      <path id="Path_5324" data-name="Path 5324" d="M18.984,60.477A11.835,11.835,0,0,1,7.1,48.593V19.983h3.081v28.61a9.3,9.3,0,0,0,9.243,9.243,9.026,9.026,0,0,0,9.243-9.243V40.23a9.683,9.683,0,1,1,19.367,0A8.658,8.658,0,0,0,56.4,48.593h.88a9.026,9.026,0,0,0,9.243-9.243V12.5H69.6V39.35A12.3,12.3,0,0,1,57.278,51.674H56.4A11.653,11.653,0,0,1,44.953,40.23a6.6,6.6,0,1,0-13.2,0v8.363A13.273,13.273,0,0,1,18.984,60.477Z" transform="translate(19.75 38.998)" fill="#008e77"/>
      <path id="Path_5325" data-name="Path 5325" d="M28.985,29.128A10.711,10.711,0,0,1,18.421,18.564C17.981,12.4,22.823,8,28.985,8A10.711,10.711,0,0,1,39.549,18.564,10.711,10.711,0,0,1,28.985,29.128Zm0-18.487a7.483,7.483,0,1,0,7.483,7.483A7.713,7.713,0,0,0,28.985,10.641Z" transform="translate(58.166 23.691)" fill="#7bd0e2"/>
      <path id="Path_5326" data-name="Path 5326" d="M24.542,18.983a4.842,4.842,0,1,1,4.842-4.842A5.2,5.2,0,0,1,24.542,18.983Zm0-6.6a1.893,1.893,0,0,0-1.761,1.761A1.893,1.893,0,0,0,24.542,15.9,1.893,1.893,0,0,0,26.3,14.142,1.893,1.893,0,0,0,24.542,12.381Z" transform="translate(62.609 28.113)" fill="#7bd0e2"/>
      <path id="Path_5327" data-name="Path 5327" d="M29.17,57.94A28.083,28.083,0,0,1,1,29.77V1.6H13.324V4.681H4.081V29.77A25.077,25.077,0,0,0,29.17,54.859,25.365,25.365,0,0,0,54.259,29.77V4.681H45.016V1.6H57.34V29.77A27.81,27.81,0,0,1,29.17,57.94Z" transform="translate(-1 1.921)" fill="#008e77"/>
      <path id="Path_5328" data-name="Path 5328" d="M16.7,10.924H3.5V.8H16.7ZM6.581,7.843h7.483V3.881H6.581Z" transform="translate(7.504 -0.8)" fill="#7bd0e2"/>
      <path id="Path_5329" data-name="Path 5329" d="M21.6,10.924H8.4V.8H21.6ZM11.481,7.843h7.483V3.881H11.481Z" transform="translate(24.172 -0.8)" fill="#7bd0e2"/>
    </g>
  </g>
</svg>
