<svg xmlns="http://www.w3.org/2000/svg" width="48.577" height="50.148" viewBox="0 0 48.577 50.148"><defs><style>.a{fill:#00aea9;}</style></defs><path class="a" d="M562.7,517.462v-.48l5.353,5.355,13.929-6.5-1.679-3.622-11.4,5.326-6.207-6.205v-3.728L568.9,501.4l11.4,5.327,1.679-3.622-13.929-6.5-5.353,5.353v-.48h-5.327v5.326H548.9a7.977,7.977,0,1,0-11.559,9.534l6.924,22.424h-8.2v7.99h34.622v-7.99h-9.641L547.81,514.16a7.842,7.842,0,0,0,1.093-2.025h8.467v5.326Zm-21.305-5.326a2.664,2.664,0,1,1,2.662-2.662,2.67,2.67,0,0,1-2.662,2.662" transform="translate(-533.403 -496.609)"/></svg>