<svg xmlns="http://www.w3.org/2000/svg" width="96.965" height="120.864" viewBox="0 0 96.965 120.864">
    <defs><style>.a{fill:#fff;}</style></defs>
    <g transform="translate(-296.938 -276.94)">
        <path class="a" d="M351.042,357.956h-5.42a3.892,3.892,0,0,1-3.9-3.876v-2.694h2.586v2.694a1.313,1.313,0,0,0,1.315,1.308h5.42a1.314,1.314,0,0,0,1.317-1.308v-5.385a1.314,1.314,0,0,0-1.317-1.31h-5.42a3.893,3.893,0,0,1-3.9-3.876v-5.385a3.9,3.9,0,0,1,3.9-3.879h5.42a3.9,3.9,0,0,1,3.9,3.879v2.691h-2.586v-2.691a1.314,1.314,0,0,0-1.317-1.309h-5.42a1.314,1.314,0,0,0-1.315,1.309v5.385a1.312,1.312,0,0,0,1.315,1.306h5.42a3.9,3.9,0,0,1,3.9,3.879v5.385a3.894,3.894,0,0,1-3.9,3.876" transform="translate(22.468 28.751)"/>
        <rect class="a" width="2.584" height="2.948" transform="translate(369.51 361.332)"/>
        <rect class="a" width="2.584" height="2.951" transform="translate(369.51 385.421)"/>
        <path class="a" d="M353.841,329.424a20.384,20.384,0,1,0,20.515,20.384,20.472,20.472,0,0,0-20.515-20.384m0,43.336a22.953,22.953,0,1,1,23.1-22.952,23.053,23.053,0,0,1-23.1,22.952" transform="translate(16.96 25.043)"/>
        <rect class="a" width="3.332" height="2.568" transform="translate(356.927 374.108)"/>
        <rect class="a" width="3.332" height="2.568" transform="translate(380.597 374.108)"/>
        <path class="a" d="M306.17,313.547h50.5V304.6a25.251,25.251,0,0,0-50.5,0Zm53.087,2.569H303.584V304.6a27.837,27.837,0,0,1,55.673,0Z" transform="translate(3.335 0)"/>
        <path class="a" d="M348.243,302.736h-2.584v-1.284a17,17,0,0,0-33.991,0v1.284h-2.586v-1.284a19.581,19.581,0,0,1,39.162,0Z" transform="translate(6.092 2.538)"/>
        <path class="a" d="M319.544,338.416H331.3L328.9,327.237l.547-.5a5.87,5.87,0,0,0,1.975-4.388,6,6,0,0,0-11.991,0,5.855,5.855,0,0,0,1.976,4.385l.548.5Zm14.952,2.569h-18.15l2.772-12.882a8.582,8.582,0,1,1,12.605,0Z" transform="translate(9.738 18.507)"/>
        <path class="a" d="M344.234,363.478H299.524V303.887h71.27v32.04h2.584v-34.61h-76.44v64.73h47.3Z" transform="translate(0 12.23)"/>
        <rect class="a" width="76.44" height="2.568" transform="translate(296.938 320.857)"/>
    </g>
</svg>