<svg xmlns="http://www.w3.org/2000/svg" width="115" height="115" viewBox="0 0 115 115"><defs><style>.a{fill:#fff;}</style></defs><g transform="translate(-96.084 -267.13)"><path class="a" d="M99.939,315.343h27.634a27.738,27.738,0,0,1,26.283-18.421,28.058,28.058,0,0,1,12.4,2.892l19.461-19.339a54.784,54.784,0,0,0-85.774,34.868m29.933,3.132H96.287l.251-1.783c3.968-28.254,28.61-49.562,57.318-49.562a57.608,57.608,0,0,1,35.221,11.931l1.424,1.087-23.678,23.525-1.036-.569a24.882,24.882,0,0,0-11.931-3.049,24.6,24.6,0,0,0-23.642,17.318Z" transform="translate(0.169 0)"/><path class="a" d="M97.68,299.479l-.022.007Zm1.567,1.144a53.573,53.573,0,0,0,10.269,30.517l19.529-19.4a27.64,27.64,0,0,1-2.885-11.114Zm9.937,35.274-1.093-1.415a56.762,56.762,0,0,1-12.008-35L96.2,297.7l1.475-.205h31.643l-.038,1.929a24.459,24.459,0,0,0,3.071,11.852l.573,1.032Z" transform="translate(0 25.154)"/><path class="a" d="M109.236,330.812a54.926,54.926,0,0,0,31.255,14.427V318.107a27.739,27.739,0,0,1-12.18-6.245Zm34.4,17.858-1.706-.143a58.083,58.083,0,0,1-36.058-16.589l-1.117-1.109,23.512-23.358,1.113,1.1a24.654,24.654,0,0,0,12.963,6.723l1.292.234Z" transform="translate(7.206 33.417)"/><path class="a" d="M128.329,374.97V342.017l1.419-.143a24.506,24.506,0,0,0,15.05-41.741l-1.109-1.107,23.444-23.275,1.115,1.108a56.95,56.95,0,0,1,16.941,40.646,57.577,57.577,0,0,1-55.209,57.387Z" transform="translate(25.896 7.16)"/></g></svg>