<svg xmlns="http://www.w3.org/2000/svg" width="107.219" height="114.877" viewBox="0 0 107.219 114.877"><defs><style>.a{fill:#fff;}</style></defs><g transform="translate(-658.324 -278.528)"><path class="a" d="M713.889,339.929H707.9a4.3,4.3,0,0,1-4.315-4.286v-2.979h2.86v2.979a1.453,1.453,0,0,0,1.455,1.447h5.994a1.454,1.454,0,0,0,1.458-1.447v-5.955a1.455,1.455,0,0,0-1.458-1.448H707.9a4.305,4.305,0,0,1-4.315-4.286V318a4.308,4.308,0,0,1,4.315-4.29h5.994a4.311,4.311,0,0,1,4.316,4.29v2.976h-2.858V318a1.455,1.455,0,0,0-1.458-1.448H707.9A1.453,1.453,0,0,0,706.441,318v5.955A1.451,1.451,0,0,0,707.9,325.4h5.994a4.311,4.311,0,0,1,4.316,4.29v5.955a4.307,4.307,0,0,1-4.316,4.286" transform="translate(29.258 23.124)"/><rect class="a" width="2.858" height="3.26" transform="translate(738.751 335.019)"/><rect class="a" width="2.858" height="3.263" transform="translate(738.751 361.616)"/><path class="a" d="M718.148,309.159A22.543,22.543,0,1,0,740.836,331.7a22.641,22.641,0,0,0-22.688-22.543m0,47.926A25.384,25.384,0,1,1,743.7,331.7a25.5,25.5,0,0,1-25.547,25.383" transform="translate(21.847 18.23)"/><rect class="a" width="3.685" height="2.84" transform="translate(724.936 349.125)"/><rect class="a" width="3.685" height="2.84" transform="translate(750.828 349.125)"/><path class="a" d="M705.6,393.4,685.06,378.969a63,63,0,0,1-26.736-51.484V298.875l12.027-2.21A61.621,61.621,0,0,0,694.39,286.6l11.575-8.068,10.352,7.49a61.582,61.582,0,0,0,23.888,10.5l12.666,2.607v21.348h-2.834V301.436l-10.4-2.136a64.4,64.4,0,0,1-24.98-10.985l-8.725-6.309-9.922,6.916a64.409,64.409,0,0,1-25.14,10.531l-9.71,1.787v26.244a60.156,60.156,0,0,0,25.528,49.163L705.6,389.936,726.134,375.5l1.627,2.321Z" transform="translate(0 0)"/><path class="a" d="M700.858,371.45,687.577,362.2a50,50,0,0,1-21.474-40.97V303.3l1.548-.277a75.347,75.347,0,0,0,29.284-12.15l4.155-2.867,3.009,2.159a75.241,75.241,0,0,0,29.07,12.665l2.443.5v10.713h-2.858v-8.4l-.158-.03a78.145,78.145,0,0,1-30.173-13.149l-1.369-.979-2.484,1.715a78.169,78.169,0,0,1-29.608,12.463v15.564a47.164,47.164,0,0,0,20.256,38.65l11.639,8.108,11.587-8.068,1.641,2.318Z" transform="translate(5.14 6.264)"/></g></svg>