<svg xmlns="http://www.w3.org/2000/svg" width="43.445" height="41.204" viewBox="0 0 43.445 41.204"><defs><style>.a{fill:#7bd0e2;}</style></defs><path class="a" d="M220,350.355c0-3.554-3.242-6.436-7.241-6.436s-7.241,2.882-7.241,6.436a6.648,6.648,0,0,0,5.663,6.271c-.627,4.437-4.853,7.893-10.009,7.893-5.588,0-10.134-4.043-10.134-9.011v-6.57c6.5-.649,11.582-5.508,11.582-11.456v-7.726a1.371,1.371,0,0,0-1.448-1.289H196.83V327.18a1.458,1.458,0,0,0-2.9,0v5.151a1.458,1.458,0,0,0,2.9,0v-1.287H199a.685.685,0,0,1,.723.643v5.8c0,4.968-4.546,9.011-10.134,9.011s-10.139-4.043-10.139-9.011v-5.8a.687.687,0,0,1,.725-.643h2.173v1.287a1.458,1.458,0,0,0,2.9,0V327.18a1.458,1.458,0,0,0-2.9,0v1.287H178a1.372,1.372,0,0,0-1.448,1.289v7.726c0,5.948,5.086,10.807,11.584,11.456v6.57c0,6.387,5.846,11.588,13.032,11.588,6.737,0,12.232-4.587,12.9-10.421a6.689,6.689,0,0,0,5.926-6.32m-7.241,3.864a3.889,3.889,0,1,1,4.343-3.864,4.131,4.131,0,0,1-4.343,3.864" transform="translate(-176.557 -325.893)"/></svg>